<svg width="159" height="159" viewBox="0 0 159 159" fill="none" xmlns="http://www.w3.org/2000/svg">
<g filter="url(#filter0_d_20_106)">
<rect width="151" height="151" transform="translate(4)" fill="black"/>
<path d="M41.418 108.504C41.418 109.944 41.146 111.181 40.602 112.216C40.0687 113.24 39.3007 114.024 38.298 114.568C37.306 115.112 36.1327 115.384 34.778 115.384C33.7967 115.384 32.9433 115.256 32.218 115C31.4927 114.755 30.9167 114.488 30.49 114.2C30.0633 113.901 29.802 113.677 29.706 113.528L31.498 109.384C31.626 109.565 31.8073 109.763 32.042 109.976C32.2767 110.189 32.5647 110.376 32.906 110.536C33.2473 110.685 33.6313 110.76 34.058 110.76C34.5487 110.76 34.986 110.659 35.37 110.456C35.754 110.253 36.058 109.917 36.282 109.448C36.5167 108.979 36.634 108.355 36.634 107.576V93.88H41.418V108.504ZM54.911 115V112.872C54.815 113.085 54.5697 113.395 54.175 113.8C53.791 114.205 53.279 114.573 52.639 114.904C51.999 115.224 51.2523 115.384 50.399 115.384C49.119 115.384 47.999 115.075 47.039 114.456C46.079 113.827 45.3323 112.989 44.799 111.944C44.2657 110.888 43.999 109.72 43.999 108.44C43.999 107.16 44.2657 105.997 44.799 104.952C45.3323 103.896 46.079 103.053 47.039 102.424C47.999 101.795 49.119 101.48 50.399 101.48C51.2203 101.48 51.9403 101.613 52.559 101.88C53.1777 102.136 53.679 102.445 54.063 102.808C54.447 103.16 54.7137 103.485 54.863 103.784V101.864H59.695V115H54.911ZM48.767 108.44C48.767 109.037 48.9057 109.576 49.183 110.056C49.4603 110.525 49.8283 110.893 50.287 111.16C50.7563 111.427 51.2737 111.56 51.839 111.56C52.4257 111.56 52.943 111.427 53.391 111.16C53.839 110.893 54.191 110.525 54.447 110.056C54.7137 109.576 54.847 109.037 54.847 108.44C54.847 107.843 54.7137 107.309 54.447 106.84C54.191 106.36 53.839 105.987 53.391 105.72C52.943 105.443 52.4257 105.304 51.839 105.304C51.2737 105.304 50.7563 105.443 50.287 105.72C49.8283 105.987 49.4603 106.36 49.183 106.84C48.9057 107.309 48.767 107.843 48.767 108.44ZM71.8215 101.48C72.7388 101.48 73.6348 101.667 74.5095 102.04C75.3842 102.413 76.1042 103.005 76.6695 103.816C77.2348 104.616 77.5175 105.672 77.5175 106.984V115H72.6375V107.784C72.6375 106.845 72.4135 106.141 71.9655 105.672C71.5175 105.192 70.9308 104.952 70.2055 104.952C69.7255 104.952 69.2722 105.08 68.8455 105.336C68.4295 105.581 68.0882 105.933 67.8215 106.392C67.5655 106.84 67.4375 107.357 67.4375 107.944V115H62.5735V101.864H67.4375V103.8C67.5655 103.448 67.8322 103.096 68.2375 102.744C68.6535 102.381 69.1708 102.083 69.7895 101.848C70.4188 101.603 71.0962 101.48 71.8215 101.48ZM84.216 109.464C84.248 109.933 84.3973 110.349 84.664 110.712C84.9307 111.075 85.2987 111.363 85.768 111.576C86.248 111.779 86.8133 111.88 87.464 111.88C88.0827 111.88 88.6373 111.816 89.128 111.688C89.6293 111.56 90.0613 111.4 90.424 111.208C90.7973 111.016 91.0853 110.819 91.288 110.616L93.176 113.624C92.9093 113.912 92.5307 114.195 92.04 114.472C91.56 114.739 90.9253 114.957 90.136 115.128C89.3467 115.299 88.3493 115.384 87.144 115.384C85.6933 115.384 84.4027 115.112 83.272 114.568C82.1413 114.024 81.2507 113.224 80.6 112.168C79.9493 111.112 79.624 109.821 79.624 108.296C79.624 107.016 79.9013 105.864 80.456 104.84C81.0213 103.805 81.8373 102.989 82.904 102.392C83.9707 101.784 85.256 101.48 86.76 101.48C88.1893 101.48 89.4267 101.741 90.472 102.264C91.528 102.787 92.3387 103.565 92.904 104.6C93.48 105.624 93.768 106.904 93.768 108.44C93.768 108.525 93.7627 108.696 93.752 108.952C93.752 109.208 93.7413 109.379 93.72 109.464H84.216ZM89.192 106.92C89.1813 106.579 89.0907 106.243 88.92 105.912C88.7493 105.571 88.4933 105.293 88.152 105.08C87.8107 104.856 87.3733 104.744 86.84 104.744C86.3067 104.744 85.8533 104.851 85.48 105.064C85.1173 105.267 84.84 105.533 84.648 105.864C84.456 106.195 84.3493 106.547 84.328 106.92H89.192ZM100.154 109.464C100.186 109.933 100.335 110.349 100.602 110.712C100.868 111.075 101.236 111.363 101.706 111.576C102.186 111.779 102.751 111.88 103.402 111.88C104.02 111.88 104.575 111.816 105.066 111.688C105.567 111.56 105.999 111.4 106.362 111.208C106.735 111.016 107.023 110.819 107.226 110.616L109.114 113.624C108.847 113.912 108.468 114.195 107.978 114.472C107.498 114.739 106.863 114.957 106.074 115.128C105.284 115.299 104.287 115.384 103.082 115.384C101.631 115.384 100.34 115.112 99.2095 114.568C98.0788 114.024 97.1882 113.224 96.5375 112.168C95.8868 111.112 95.5615 109.821 95.5615 108.296C95.5615 107.016 95.8388 105.864 96.3935 104.84C96.9588 103.805 97.7748 102.989 98.8415 102.392C99.9082 101.784 101.194 101.48 102.698 101.48C104.127 101.48 105.364 101.741 106.41 102.264C107.466 102.787 108.276 103.565 108.842 104.6C109.418 105.624 109.706 106.904 109.706 108.44C109.706 108.525 109.7 108.696 109.69 108.952C109.69 109.208 109.679 109.379 109.658 109.464H100.154ZM105.13 106.92C105.119 106.579 105.028 106.243 104.858 105.912C104.687 105.571 104.431 105.293 104.09 105.08C103.748 104.856 103.311 104.744 102.778 104.744C102.244 104.744 101.791 104.851 101.418 105.064C101.055 105.267 100.778 105.533 100.586 105.864C100.394 106.195 100.287 106.547 100.266 106.92H105.13ZM112.139 115V92.984H117.003V103.784C117.099 103.485 117.344 103.16 117.739 102.808C118.144 102.445 118.672 102.136 119.323 101.88C119.984 101.613 120.731 101.48 121.563 101.48C122.843 101.48 123.952 101.795 124.891 102.424C125.83 103.053 126.555 103.896 127.067 104.952C127.579 105.997 127.835 107.16 127.835 108.44C127.835 109.72 127.579 110.888 127.067 111.944C126.555 112.989 125.83 113.827 124.891 114.456C123.952 115.075 122.843 115.384 121.563 115.384C120.859 115.384 120.192 115.256 119.563 115C118.944 114.755 118.406 114.44 117.947 114.056C117.499 113.661 117.168 113.267 116.955 112.872V115H112.139ZM123.067 108.44C123.067 107.843 122.934 107.309 122.667 106.84C122.411 106.36 122.054 105.987 121.595 105.72C121.147 105.443 120.64 105.304 120.075 105.304C119.488 105.304 118.96 105.443 118.491 105.72C118.032 105.987 117.67 106.36 117.403 106.84C117.136 107.309 117.003 107.843 117.003 108.44C117.003 109.037 117.136 109.576 117.403 110.056C117.67 110.525 118.032 110.893 118.491 111.16C118.96 111.427 119.488 111.56 120.075 111.56C120.64 111.56 121.147 111.427 121.595 111.16C122.054 110.893 122.411 110.525 122.667 110.056C122.934 109.576 123.067 109.037 123.067 108.44Z" fill="white"/>
<path d="M30.7314 121.28C31.098 121.28 31.4097 121.323 31.6664 121.41C31.9264 121.497 32.1297 121.588 32.2764 121.685C32.423 121.778 32.508 121.838 32.5314 121.865L32.2214 122.335C32.1714 122.292 32.083 122.228 31.9564 122.145C31.833 122.062 31.673 121.987 31.4764 121.92C31.2797 121.85 31.0464 121.815 30.7764 121.815C30.3464 121.815 30.008 121.905 29.7614 122.085C29.5147 122.265 29.3914 122.515 29.3914 122.835C29.3914 123.052 29.4564 123.242 29.5864 123.405C29.7164 123.565 29.893 123.71 30.1164 123.84C30.343 123.97 30.598 124.1 30.8814 124.23C31.1047 124.33 31.328 124.442 31.5514 124.565C31.778 124.688 31.9847 124.833 32.1714 125C32.3614 125.167 32.513 125.36 32.6264 125.58C32.743 125.8 32.8014 126.055 32.8014 126.345C32.8014 126.608 32.748 126.848 32.6414 127.065C32.5347 127.282 32.383 127.47 32.1864 127.63C31.993 127.787 31.763 127.908 31.4964 127.995C31.2297 128.078 30.9364 128.12 30.6164 128.12C30.2364 128.12 29.8914 128.072 29.5814 127.975C29.2714 127.875 29.0214 127.773 28.8314 127.67C28.6414 127.563 28.5364 127.5 28.5164 127.48L28.8514 126.985C28.8914 127.018 28.9614 127.068 29.0614 127.135C29.1647 127.198 29.293 127.265 29.4464 127.335C29.5997 127.405 29.7764 127.463 29.9764 127.51C30.1797 127.557 30.3997 127.58 30.6364 127.58C31.1497 127.58 31.538 127.46 31.8014 127.22C32.068 126.98 32.2014 126.678 32.2014 126.315C32.2014 126.032 32.1164 125.79 31.9464 125.59C31.7764 125.387 31.558 125.208 31.2914 125.055C31.0247 124.902 30.7464 124.757 30.4564 124.62C30.1497 124.477 29.8714 124.323 29.6214 124.16C29.3714 123.997 29.1714 123.807 29.0214 123.59C28.8714 123.373 28.7964 123.113 28.7964 122.81C28.7964 122.513 28.8814 122.25 29.0514 122.02C29.2247 121.79 29.4564 121.61 29.7464 121.48C30.0397 121.347 30.368 121.28 30.7314 121.28ZM43.4431 128.12C43.0331 128.12 42.6681 128.025 42.3481 127.835C42.0314 127.642 41.7814 127.382 41.5981 127.055C41.4181 126.728 41.3281 126.363 41.3281 125.96C41.3281 125.557 41.4181 125.19 41.5981 124.86C41.7814 124.527 42.0314 124.263 42.3481 124.07C42.6681 123.873 43.0331 123.775 43.4431 123.775C43.8531 123.775 44.2147 123.873 44.5281 124.07C44.8447 124.263 45.0931 124.527 45.2731 124.86C45.4531 125.19 45.5431 125.557 45.5431 125.96C45.5431 126.363 45.4531 126.728 45.2731 127.055C45.0931 127.382 44.8447 127.642 44.5281 127.835C44.2147 128.025 43.8531 128.12 43.4431 128.12ZM43.4431 127.605C43.7531 127.605 44.0231 127.533 44.2531 127.39C44.4864 127.247 44.6664 127.05 44.7931 126.8C44.9231 126.55 44.9881 126.27 44.9881 125.96C44.9881 125.647 44.9231 125.365 44.7931 125.115C44.6664 124.862 44.4864 124.662 44.2531 124.515C44.0231 124.365 43.7531 124.29 43.4431 124.29C43.1297 124.29 42.8564 124.365 42.6231 124.515C42.3897 124.662 42.2081 124.862 42.0781 125.115C41.9481 125.365 41.8831 125.647 41.8831 125.96C41.8831 126.27 41.9481 126.55 42.0781 126.8C42.2081 127.05 42.3897 127.247 42.6231 127.39C42.8564 127.533 43.1297 127.605 43.4431 127.605ZM54.8945 128H54.3145V121.12H54.8945V128ZM64.4967 126.04C64.4967 126.52 64.6017 126.902 64.8117 127.185C65.025 127.465 65.345 127.605 65.7717 127.605C66.2017 127.605 66.5217 127.465 66.7317 127.185C66.9417 126.902 67.0467 126.52 67.0467 126.04V123.895H67.6167V126.14C67.6167 126.523 67.545 126.865 67.4017 127.165C67.2583 127.462 67.05 127.695 66.7767 127.865C66.5033 128.035 66.1683 128.12 65.7717 128.12C65.3783 128.12 65.045 128.035 64.7717 127.865C64.4983 127.695 64.29 127.462 64.1467 127.165C64.0033 126.865 63.9317 126.523 63.9317 126.14V123.895H64.4967V126.04ZM76.2288 123.895H77.0838V122.21H77.6488V123.895H78.7688V124.41H77.6488V126.845C77.6488 127.118 77.6988 127.313 77.7988 127.43C77.8988 127.547 78.0238 127.605 78.1738 127.605C78.3171 127.605 78.4255 127.58 78.4988 127.53C78.5721 127.48 78.6155 127.447 78.6288 127.43L78.8938 127.865C78.8738 127.882 78.8288 127.912 78.7588 127.955C78.6888 127.995 78.5971 128.032 78.4838 128.065C78.3705 128.102 78.2338 128.12 78.0738 128.12C77.7971 128.12 77.5621 128.032 77.3688 127.855C77.1788 127.675 77.0838 127.388 77.0838 126.995V124.41H76.2288V123.895ZM87.5578 128V123.895H88.1228V128H87.5578ZM87.8478 122.23C87.7278 122.23 87.6245 122.188 87.5378 122.105C87.4545 122.018 87.4128 121.915 87.4128 121.795C87.4128 121.672 87.4562 121.568 87.5428 121.485C87.6295 121.398 87.7312 121.355 87.8478 121.355C87.9278 121.355 88.0012 121.375 88.0678 121.415C88.1378 121.455 88.1928 121.508 88.2328 121.575C88.2762 121.638 88.2978 121.712 88.2978 121.795C88.2978 121.915 88.2528 122.018 88.1628 122.105C88.0762 122.188 87.9712 122.23 87.8478 122.23ZM99.1013 128.12C98.6913 128.12 98.3263 128.025 98.0063 127.835C97.6896 127.642 97.4396 127.382 97.2563 127.055C97.0763 126.728 96.9863 126.363 96.9863 125.96C96.9863 125.557 97.0763 125.19 97.2563 124.86C97.4396 124.527 97.6896 124.263 98.0063 124.07C98.3263 123.873 98.6913 123.775 99.1013 123.775C99.5113 123.775 99.8729 123.873 100.186 124.07C100.503 124.263 100.751 124.527 100.931 124.86C101.111 125.19 101.201 125.557 101.201 125.96C101.201 126.363 101.111 126.728 100.931 127.055C100.751 127.382 100.503 127.642 100.186 127.835C99.8729 128.025 99.5113 128.12 99.1013 128.12ZM99.1013 127.605C99.4113 127.605 99.6813 127.533 99.9113 127.39C100.145 127.247 100.325 127.05 100.451 126.8C100.581 126.55 100.646 126.27 100.646 125.96C100.646 125.647 100.581 125.365 100.451 125.115C100.325 124.862 100.145 124.662 99.9113 124.515C99.6813 124.365 99.4113 124.29 99.1013 124.29C98.7879 124.29 98.5146 124.365 98.2813 124.515C98.0479 124.662 97.8663 124.862 97.7363 125.115C97.6063 125.365 97.5413 125.647 97.5413 125.96C97.5413 126.27 97.6063 126.55 97.7363 126.8C97.8663 127.05 98.0479 127.247 98.2813 127.39C98.5146 127.533 98.7879 127.605 99.1013 127.605ZM111.983 123.775C112.243 123.775 112.496 123.832 112.743 123.945C112.989 124.055 113.193 124.232 113.353 124.475C113.513 124.715 113.593 125.027 113.593 125.41V128H113.013V125.545C113.013 125.088 112.906 124.76 112.693 124.56C112.479 124.357 112.206 124.255 111.873 124.255C111.653 124.255 111.439 124.318 111.233 124.445C111.029 124.572 110.861 124.745 110.728 124.965C110.598 125.185 110.533 125.432 110.533 125.705V128H109.963V123.895H110.533V124.685C110.556 124.568 110.634 124.44 110.768 124.3C110.904 124.157 111.078 124.033 111.288 123.93C111.501 123.827 111.733 123.775 111.983 123.775ZM123.95 123.775C124.14 123.775 124.318 123.797 124.485 123.84C124.655 123.88 124.803 123.932 124.93 123.995C125.056 124.055 125.151 124.11 125.215 124.16L124.94 124.555C124.87 124.488 124.748 124.418 124.575 124.345C124.401 124.268 124.206 124.23 123.99 124.23C123.723 124.23 123.495 124.285 123.305 124.395C123.118 124.505 123.025 124.665 123.025 124.875C123.025 125.078 123.12 125.24 123.31 125.36C123.5 125.48 123.75 125.578 124.06 125.655C124.296 125.715 124.511 125.79 124.705 125.88C124.901 125.97 125.058 126.093 125.175 126.25C125.291 126.403 125.35 126.608 125.35 126.865C125.35 127.085 125.305 127.275 125.215 127.435C125.125 127.592 125.001 127.72 124.845 127.82C124.691 127.92 124.516 127.995 124.32 128.045C124.123 128.095 123.916 128.12 123.7 128.12C123.476 128.12 123.27 128.095 123.08 128.045C122.89 127.995 122.726 127.935 122.59 127.865C122.456 127.795 122.355 127.73 122.285 127.67L122.57 127.225C122.656 127.315 122.798 127.408 122.995 127.505C123.195 127.598 123.428 127.645 123.695 127.645C124.005 127.645 124.26 127.573 124.46 127.43C124.663 127.287 124.765 127.098 124.765 126.865C124.765 126.695 124.716 126.558 124.62 126.455C124.523 126.352 124.396 126.27 124.24 126.21C124.083 126.147 123.916 126.093 123.74 126.05C123.57 126.007 123.406 125.955 123.25 125.895C123.096 125.832 122.96 125.753 122.84 125.66C122.72 125.567 122.625 125.455 122.555 125.325C122.488 125.192 122.455 125.037 122.455 124.86C122.455 124.64 122.523 124.45 122.66 124.29C122.796 124.127 122.978 124 123.205 123.91C123.435 123.82 123.683 123.775 123.95 123.775Z" fill="white"/>
<g filter="url(#filter1_d_20_106)">
<path d="M66.8933 74.1801V69.5001L87.5933 69.5361C88.6493 69.5361 89.4533 69.2961 90.0053 68.8161C90.5813 68.3121 90.8693 67.5081 90.8693 66.4041C90.8693 65.3001 90.5813 64.5081 90.0053 64.0281C89.4533 63.5241 88.6493 63.2721 87.5933 63.2721H74.7053C72.0413 63.2721 69.9653 62.6361 68.4773 61.3641C67.0133 60.0681 66.2813 58.1721 66.2813 55.6761C66.2813 53.1801 67.0133 51.2961 68.4773 50.0241C69.9653 48.7281 72.0413 48.0801 74.7053 48.0801H94.9373V52.7601L75.3173 52.7241C74.2853 52.7241 73.4813 52.9641 72.9053 53.4441C72.3293 53.9001 72.0413 54.6441 72.0413 55.6761C72.0413 56.7081 72.3293 57.4641 72.9053 57.9441C73.4813 58.4001 74.2853 58.6281 75.3173 58.6281H88.2053C90.8693 58.6281 92.9333 59.2881 94.3973 60.6081C95.8853 61.9041 96.6293 63.8361 96.6293 66.4041C96.6293 68.9481 95.8853 70.8801 94.3973 72.2001C92.9333 73.5201 90.8693 74.1801 88.2053 74.1801H66.8933Z" fill="white"/>
</g>
<g filter="url(#filter2_bd_20_106)">
<path fill-rule="evenodd" clip-rule="evenodd" d="M59.4193 68.662C61.286 70.0486 64.1926 70.742 68.1393 70.742H72.8193C75.726 70.742 78.0193 70.3686 79.6993 69.622C81.3793 68.8486 82.5793 67.6886 83.2993 66.142C84.0193 64.5953 84.3793 62.6486 84.3793 60.302V41.942H77.9793V48.0265H84.357V52.6739H77.9793V60.302C77.9793 62.3286 77.4993 63.7153 76.5393 64.462C75.606 65.182 74.006 65.542 71.7393 65.542H69.2193C67.3526 65.542 65.8726 65.302 64.7793 64.822C63.686 64.3153 63.1393 63.3286 63.1393 61.862C63.1393 61.6486 63.1526 61.382 63.1793 61.062C63.206 60.742 63.246 60.4086 63.2993 60.062H56.8993C56.7393 60.782 56.6593 61.4886 56.6593 62.182C56.6593 65.0886 57.5793 67.2486 59.4193 68.662Z" fill="#FF9900"/>
</g>
<g filter="url(#filter3_d_20_106)">
<path fill-rule="evenodd" clip-rule="evenodd" d="M53 41C56.1052 37.484 59.8808 34.6136 64.112 32.5607C68.8911 30.242 74.1296 29.0254 79.4414 29.0004C84.7532 28.9754 90.0029 30.1428 94.8035 32.4164C99.1546 34.4772 103.036 37.3992 106.217 41H99.7678C97.6816 39.2104 95.3602 37.7011 92.8612 36.5176C88.6742 34.5345 84.0955 33.5164 79.4627 33.5382C74.8299 33.56 70.261 34.6211 66.0929 36.6434C63.6929 37.8078 61.4611 39.2738 59.4488 41H53Z" fill="white"/>
</g>
<g filter="url(#filter4_d_20_106)">
<path fill-rule="evenodd" clip-rule="evenodd" d="M43.5375 44H38C42.3845 37.0825 48.419 31.358 55.5651 27.3436C62.8926 23.2272 71.1475 21.0443 79.5519 21.0007C87.9563 20.957 96.2334 23.054 103.603 27.0939C110.941 31.1164 117.139 36.9331 121.618 44H116.081C112.2 38.6885 107.192 34.2834 101.402 31.1094C94.714 27.4431 87.2026 25.5402 79.5757 25.5798C71.9487 25.6194 64.4575 27.6004 57.8079 31.3359C52.1873 34.4934 47.3245 38.8166 43.5375 44Z" fill="#FF9900"/>
</g>
</g>
<defs>
<filter id="filter0_d_20_106" x="0" y="0" width="159" height="159" filterUnits="userSpaceOnUse" color-interpolation-filters="sRGB">
<feFlood flood-opacity="0" result="BackgroundImageFix"/>
<feColorMatrix in="SourceAlpha" type="matrix" values="0 0 0 0 0 0 0 0 0 0 0 0 0 0 0 0 0 0 127 0" result="hardAlpha"/>
<feOffset dy="4"/>
<feGaussianBlur stdDeviation="2"/>
<feComposite in2="hardAlpha" operator="out"/>
<feColorMatrix type="matrix" values="0 0 0 0 0 0 0 0 0 0 0 0 0 0 0 0 0 0 0.25 0"/>
<feBlend mode="normal" in2="BackgroundImageFix" result="effect1_dropShadow_20_106"/>
<feBlend mode="normal" in="SourceGraphic" in2="effect1_dropShadow_20_106" result="shape"/>
</filter>
<filter id="filter1_d_20_106" x="62.2812" y="48.0801" width="38.348" height="34.1" filterUnits="userSpaceOnUse" color-interpolation-filters="sRGB">
<feFlood flood-opacity="0" result="BackgroundImageFix"/>
<feColorMatrix in="SourceAlpha" type="matrix" values="0 0 0 0 0 0 0 0 0 0 0 0 0 0 0 0 0 0 127 0" result="hardAlpha"/>
<feOffset dy="4"/>
<feGaussianBlur stdDeviation="2"/>
<feComposite in2="hardAlpha" operator="out"/>
<feColorMatrix type="matrix" values="0 0 0 0 0 0 0 0 0 0 0 0 0 0 0 0 0 0 0.25 0"/>
<feBlend mode="normal" in2="BackgroundImageFix" result="effect1_dropShadow_20_106"/>
<feBlend mode="normal" in="SourceGraphic" in2="effect1_dropShadow_20_106" result="shape"/>
</filter>
<filter id="filter2_bd_20_106" x="21.9593" y="7.24195" width="97.12" height="98.2" filterUnits="userSpaceOnUse" color-interpolation-filters="sRGB">
<feFlood flood-opacity="0" result="BackgroundImageFix"/>
<feGaussianBlur in="BackgroundImageFix" stdDeviation="17.35"/>
<feComposite in2="SourceAlpha" operator="in" result="effect1_backgroundBlur_20_106"/>
<feColorMatrix in="SourceAlpha" type="matrix" values="0 0 0 0 0 0 0 0 0 0 0 0 0 0 0 0 0 0 127 0" result="hardAlpha"/>
<feOffset dy="4"/>
<feGaussianBlur stdDeviation="2"/>
<feComposite in2="hardAlpha" operator="out"/>
<feColorMatrix type="matrix" values="0 0 0 0 0 0 0 0 0 0 0 0 0 0 0 0 0 0 0.25 0"/>
<feBlend mode="normal" in2="effect1_backgroundBlur_20_106" result="effect2_dropShadow_20_106"/>
<feBlend mode="normal" in="SourceGraphic" in2="effect2_dropShadow_20_106" result="shape"/>
</filter>
<filter id="filter3_d_20_106" x="49" y="29" width="61.2166" height="20" filterUnits="userSpaceOnUse" color-interpolation-filters="sRGB">
<feFlood flood-opacity="0" result="BackgroundImageFix"/>
<feColorMatrix in="SourceAlpha" type="matrix" values="0 0 0 0 0 0 0 0 0 0 0 0 0 0 0 0 0 0 127 0" result="hardAlpha"/>
<feOffset dy="4"/>
<feGaussianBlur stdDeviation="2"/>
<feComposite in2="hardAlpha" operator="out"/>
<feColorMatrix type="matrix" values="0 0 0 0 0 0 0 0 0 0 0 0 0 0 0 0 0 0 0.25 0"/>
<feBlend mode="normal" in2="BackgroundImageFix" result="effect1_dropShadow_20_106"/>
<feBlend mode="normal" in="SourceGraphic" in2="effect1_dropShadow_20_106" result="shape"/>
</filter>
<filter id="filter4_d_20_106" x="34" y="21" width="91.6182" height="31" filterUnits="userSpaceOnUse" color-interpolation-filters="sRGB">
<feFlood flood-opacity="0" result="BackgroundImageFix"/>
<feColorMatrix in="SourceAlpha" type="matrix" values="0 0 0 0 0 0 0 0 0 0 0 0 0 0 0 0 0 0 127 0" result="hardAlpha"/>
<feOffset dy="4"/>
<feGaussianBlur stdDeviation="2"/>
<feComposite in2="hardAlpha" operator="out"/>
<feColorMatrix type="matrix" values="0 0 0 0 0 0 0 0 0 0 0 0 0 0 0 0 0 0 0.25 0"/>
<feBlend mode="normal" in2="BackgroundImageFix" result="effect1_dropShadow_20_106"/>
<feBlend mode="normal" in="SourceGraphic" in2="effect1_dropShadow_20_106" result="shape"/>
</filter>
</defs>
</svg>
