<svg width="151" height="151" viewBox="0 0 151 151" fill="none" xmlns="http://www.w3.org/2000/svg">
<g filter="url(#filter0_d_23_166)">
<path d="M37.418 73.504C37.418 74.944 37.146 76.1813 36.602 77.216C36.0687 78.24 35.3007 79.024 34.298 79.568C33.306 80.112 32.1327 80.384 30.778 80.384C29.7967 80.384 28.9433 80.256 28.218 80C27.4927 79.7547 26.9167 79.488 26.49 79.2C26.0633 78.9013 25.802 78.6773 25.706 78.528L27.498 74.384C27.626 74.5653 27.8073 74.7627 28.042 74.976C28.2767 75.1893 28.5647 75.376 28.906 75.536C29.2473 75.6853 29.6313 75.76 30.058 75.76C30.5487 75.76 30.986 75.6587 31.37 75.456C31.754 75.2533 32.058 74.9173 32.282 74.448C32.5167 73.9787 32.634 73.3547 32.634 72.576V58.88H37.418V73.504ZM50.911 80V77.872C50.815 78.0853 50.5697 78.3947 50.175 78.8C49.791 79.2053 49.279 79.5733 48.639 79.904C47.999 80.224 47.2523 80.384 46.399 80.384C45.119 80.384 43.999 80.0747 43.039 79.456C42.079 78.8267 41.3323 77.9893 40.799 76.944C40.2657 75.888 39.999 74.72 39.999 73.44C39.999 72.16 40.2657 70.9973 40.799 69.952C41.3323 68.896 42.079 68.0533 43.039 67.424C43.999 66.7947 45.119 66.48 46.399 66.48C47.2203 66.48 47.9403 66.6133 48.559 66.88C49.1777 67.136 49.679 67.4453 50.063 67.808C50.447 68.16 50.7137 68.4853 50.863 68.784V66.864H55.695V80H50.911ZM44.767 73.44C44.767 74.0373 44.9057 74.576 45.183 75.056C45.4603 75.5253 45.8283 75.8933 46.287 76.16C46.7563 76.4267 47.2737 76.56 47.839 76.56C48.4257 76.56 48.943 76.4267 49.391 76.16C49.839 75.8933 50.191 75.5253 50.447 75.056C50.7137 74.576 50.847 74.0373 50.847 73.44C50.847 72.8427 50.7137 72.3093 50.447 71.84C50.191 71.36 49.839 70.9867 49.391 70.72C48.943 70.4427 48.4257 70.304 47.839 70.304C47.2737 70.304 46.7563 70.4427 46.287 70.72C45.8283 70.9867 45.4603 71.36 45.183 71.84C44.9057 72.3093 44.767 72.8427 44.767 73.44ZM67.8215 66.48C68.7388 66.48 69.6348 66.6667 70.5095 67.04C71.3842 67.4133 72.1042 68.0053 72.6695 68.816C73.2348 69.616 73.5175 70.672 73.5175 71.984V80H68.6375V72.784C68.6375 71.8453 68.4135 71.1413 67.9655 70.672C67.5175 70.192 66.9308 69.952 66.2055 69.952C65.7255 69.952 65.2722 70.08 64.8455 70.336C64.4295 70.5813 64.0882 70.9333 63.8215 71.392C63.5655 71.84 63.4375 72.3573 63.4375 72.944V80H58.5735V66.864H63.4375V68.8C63.5655 68.448 63.8322 68.096 64.2375 67.744C64.6535 67.3813 65.1708 67.0827 65.7895 66.848C66.4188 66.6027 67.0962 66.48 67.8215 66.48ZM80.216 74.464C80.248 74.9333 80.3973 75.3493 80.664 75.712C80.9307 76.0747 81.2987 76.3627 81.768 76.576C82.248 76.7787 82.8133 76.88 83.464 76.88C84.0827 76.88 84.6373 76.816 85.128 76.688C85.6293 76.56 86.0613 76.4 86.424 76.208C86.7973 76.016 87.0853 75.8187 87.288 75.616L89.176 78.624C88.9093 78.912 88.5307 79.1947 88.04 79.472C87.56 79.7387 86.9253 79.9573 86.136 80.128C85.3467 80.2987 84.3493 80.384 83.144 80.384C81.6933 80.384 80.4027 80.112 79.272 79.568C78.1413 79.024 77.2507 78.224 76.6 77.168C75.9493 76.112 75.624 74.8213 75.624 73.296C75.624 72.016 75.9013 70.864 76.456 69.84C77.0213 68.8053 77.8373 67.9893 78.904 67.392C79.9707 66.784 81.256 66.48 82.76 66.48C84.1893 66.48 85.4267 66.7413 86.472 67.264C87.528 67.7867 88.3387 68.5653 88.904 69.6C89.48 70.624 89.768 71.904 89.768 73.44C89.768 73.5253 89.7627 73.696 89.752 73.952C89.752 74.208 89.7413 74.3787 89.72 74.464H80.216ZM85.192 71.92C85.1813 71.5787 85.0907 71.2427 84.92 70.912C84.7493 70.5707 84.4933 70.2933 84.152 70.08C83.8107 69.856 83.3733 69.744 82.84 69.744C82.3067 69.744 81.8533 69.8507 81.48 70.064C81.1173 70.2667 80.84 70.5333 80.648 70.864C80.456 71.1947 80.3493 71.5467 80.328 71.92H85.192ZM96.1535 74.464C96.1855 74.9333 96.3348 75.3493 96.6015 75.712C96.8682 76.0747 97.2362 76.3627 97.7055 76.576C98.1855 76.7787 98.7508 76.88 99.4015 76.88C100.02 76.88 100.575 76.816 101.066 76.688C101.567 76.56 101.999 76.4 102.362 76.208C102.735 76.016 103.023 75.8187 103.226 75.616L105.114 78.624C104.847 78.912 104.468 79.1947 103.978 79.472C103.498 79.7387 102.863 79.9573 102.074 80.128C101.284 80.2987 100.287 80.384 99.0815 80.384C97.6308 80.384 96.3402 80.112 95.2095 79.568C94.0788 79.024 93.1882 78.224 92.5375 77.168C91.8868 76.112 91.5615 74.8213 91.5615 73.296C91.5615 72.016 91.8388 70.864 92.3935 69.84C92.9588 68.8053 93.7748 67.9893 94.8415 67.392C95.9082 66.784 97.1935 66.48 98.6975 66.48C100.127 66.48 101.364 66.7413 102.41 67.264C103.466 67.7867 104.276 68.5653 104.842 69.6C105.418 70.624 105.706 71.904 105.706 73.44C105.706 73.5253 105.7 73.696 105.69 73.952C105.69 74.208 105.679 74.3787 105.658 74.464H96.1535ZM101.13 71.92C101.119 71.5787 101.028 71.2427 100.858 70.912C100.687 70.5707 100.431 70.2933 100.09 70.08C99.7482 69.856 99.3108 69.744 98.7775 69.744C98.2442 69.744 97.7908 69.8507 97.4175 70.064C97.0548 70.2667 96.7775 70.5333 96.5855 70.864C96.3935 71.1947 96.2868 71.5467 96.2655 71.92H101.13ZM108.139 80V57.984H113.003V68.784C113.099 68.4853 113.344 68.16 113.739 67.808C114.144 67.4453 114.672 67.136 115.323 66.88C115.984 66.6133 116.731 66.48 117.563 66.48C118.843 66.48 119.952 66.7947 120.891 67.424C121.83 68.0533 122.555 68.896 123.067 69.952C123.579 70.9973 123.835 72.16 123.835 73.44C123.835 74.72 123.579 75.888 123.067 76.944C122.555 77.9893 121.83 78.8267 120.891 79.456C119.952 80.0747 118.843 80.384 117.563 80.384C116.859 80.384 116.192 80.256 115.563 80C114.944 79.7547 114.406 79.44 113.947 79.056C113.499 78.6613 113.168 78.2667 112.955 77.872V80H108.139ZM119.067 73.44C119.067 72.8427 118.934 72.3093 118.667 71.84C118.411 71.36 118.054 70.9867 117.595 70.72C117.147 70.4427 116.64 70.304 116.075 70.304C115.488 70.304 114.96 70.4427 114.491 70.72C114.032 70.9867 113.67 71.36 113.403 71.84C113.136 72.3093 113.003 72.8427 113.003 73.44C113.003 74.0373 113.136 74.576 113.403 75.056C113.67 75.5253 114.032 75.8933 114.491 76.16C114.96 76.4267 115.488 76.56 116.075 76.56C116.64 76.56 117.147 76.4267 117.595 76.16C118.054 75.8933 118.411 75.5253 118.667 75.056C118.934 74.576 119.067 74.0373 119.067 73.44Z" fill="white"/>
<path d="M26.7314 86.28C27.098 86.28 27.4097 86.3233 27.6664 86.41C27.9264 86.4967 28.1297 86.5883 28.2764 86.685C28.423 86.7783 28.508 86.8383 28.5314 86.865L28.2214 87.335C28.1714 87.2917 28.083 87.2283 27.9564 87.145C27.833 87.0617 27.673 86.9867 27.4764 86.92C27.2797 86.85 27.0464 86.815 26.7764 86.815C26.3464 86.815 26.008 86.905 25.7614 87.085C25.5147 87.265 25.3914 87.515 25.3914 87.835C25.3914 88.0517 25.4564 88.2417 25.5864 88.405C25.7164 88.565 25.893 88.71 26.1164 88.84C26.343 88.97 26.598 89.1 26.8814 89.23C27.1047 89.33 27.328 89.4417 27.5514 89.565C27.778 89.6883 27.9847 89.8333 28.1714 90C28.3614 90.1667 28.513 90.36 28.6264 90.58C28.743 90.8 28.8014 91.055 28.8014 91.345C28.8014 91.6083 28.748 91.8483 28.6414 92.065C28.5347 92.2817 28.383 92.47 28.1864 92.63C27.993 92.7867 27.763 92.9083 27.4964 92.995C27.2297 93.0783 26.9364 93.12 26.6164 93.12C26.2364 93.12 25.8914 93.0717 25.5814 92.975C25.2714 92.875 25.0214 92.7733 24.8314 92.67C24.6414 92.5633 24.5364 92.5 24.5164 92.48L24.8514 91.985C24.8914 92.0183 24.9614 92.0683 25.0614 92.135C25.1647 92.1983 25.293 92.265 25.4464 92.335C25.5997 92.405 25.7764 92.4633 25.9764 92.51C26.1797 92.5567 26.3997 92.58 26.6364 92.58C27.1497 92.58 27.538 92.46 27.8014 92.22C28.068 91.98 28.2014 91.6783 28.2014 91.315C28.2014 91.0317 28.1164 90.79 27.9464 90.59C27.7764 90.3867 27.558 90.2083 27.2914 90.055C27.0247 89.9017 26.7464 89.7567 26.4564 89.62C26.1497 89.4767 25.8714 89.3233 25.6214 89.16C25.3714 88.9967 25.1714 88.8067 25.0214 88.59C24.8714 88.3733 24.7964 88.1133 24.7964 87.81C24.7964 87.5133 24.8814 87.25 25.0514 87.02C25.2247 86.79 25.4564 86.61 25.7464 86.48C26.0397 86.3467 26.368 86.28 26.7314 86.28ZM39.4431 93.12C39.0331 93.12 38.6681 93.025 38.3481 92.835C38.0314 92.6417 37.7814 92.3817 37.5981 92.055C37.4181 91.7283 37.3281 91.3633 37.3281 90.96C37.3281 90.5567 37.4181 90.19 37.5981 89.86C37.7814 89.5267 38.0314 89.2633 38.3481 89.07C38.6681 88.8733 39.0331 88.775 39.4431 88.775C39.8531 88.775 40.2147 88.8733 40.5281 89.07C40.8447 89.2633 41.0931 89.5267 41.2731 89.86C41.4531 90.19 41.5431 90.5567 41.5431 90.96C41.5431 91.3633 41.4531 91.7283 41.2731 92.055C41.0931 92.3817 40.8447 92.6417 40.5281 92.835C40.2147 93.025 39.8531 93.12 39.4431 93.12ZM39.4431 92.605C39.7531 92.605 40.0231 92.5333 40.2531 92.39C40.4864 92.2467 40.6664 92.05 40.7931 91.8C40.9231 91.55 40.9881 91.27 40.9881 90.96C40.9881 90.6467 40.9231 90.365 40.7931 90.115C40.6664 89.8617 40.4864 89.6617 40.2531 89.515C40.0231 89.365 39.7531 89.29 39.4431 89.29C39.1297 89.29 38.8564 89.365 38.6231 89.515C38.3897 89.6617 38.2081 89.8617 38.0781 90.115C37.9481 90.365 37.8831 90.6467 37.8831 90.96C37.8831 91.27 37.9481 91.55 38.0781 91.8C38.2081 92.05 38.3897 92.2467 38.6231 92.39C38.8564 92.5333 39.1297 92.605 39.4431 92.605ZM50.8945 93H50.3145V86.12H50.8945V93ZM60.4967 91.04C60.4967 91.52 60.6017 91.9017 60.8117 92.185C61.025 92.465 61.345 92.605 61.7717 92.605C62.2017 92.605 62.5217 92.465 62.7317 92.185C62.9417 91.9017 63.0467 91.52 63.0467 91.04V88.895H63.6167V91.14C63.6167 91.5233 63.545 91.865 63.4017 92.165C63.2583 92.4617 63.05 92.695 62.7767 92.865C62.5033 93.035 62.1683 93.12 61.7717 93.12C61.3783 93.12 61.045 93.035 60.7717 92.865C60.4983 92.695 60.29 92.4617 60.1467 92.165C60.0033 91.865 59.9317 91.5233 59.9317 91.14V88.895H60.4967V91.04ZM72.2288 88.895H73.0838V87.21H73.6488V88.895H74.7688V89.41H73.6488V91.845C73.6488 92.1183 73.6988 92.3133 73.7988 92.43C73.8988 92.5467 74.0238 92.605 74.1738 92.605C74.3171 92.605 74.4255 92.58 74.4988 92.53C74.5721 92.48 74.6155 92.4467 74.6288 92.43L74.8938 92.865C74.8738 92.8817 74.8288 92.9117 74.7588 92.955C74.6888 92.995 74.5971 93.0317 74.4838 93.065C74.3705 93.1017 74.2338 93.12 74.0738 93.12C73.7971 93.12 73.5621 93.0317 73.3688 92.855C73.1788 92.675 73.0838 92.3883 73.0838 91.995V89.41H72.2288V88.895ZM83.5578 93V88.895H84.1228V93H83.5578ZM83.8478 87.23C83.7278 87.23 83.6245 87.1883 83.5378 87.105C83.4545 87.0183 83.4128 86.915 83.4128 86.795C83.4128 86.6717 83.4562 86.5683 83.5428 86.485C83.6295 86.3983 83.7312 86.355 83.8478 86.355C83.9278 86.355 84.0012 86.375 84.0678 86.415C84.1378 86.455 84.1928 86.5083 84.2328 86.575C84.2762 86.6383 84.2978 86.7117 84.2978 86.795C84.2978 86.915 84.2528 87.0183 84.1628 87.105C84.0762 87.1883 83.9712 87.23 83.8478 87.23ZM95.1013 93.12C94.6913 93.12 94.3263 93.025 94.0063 92.835C93.6896 92.6417 93.4396 92.3817 93.2563 92.055C93.0763 91.7283 92.9863 91.3633 92.9863 90.96C92.9863 90.5567 93.0763 90.19 93.2563 89.86C93.4396 89.5267 93.6896 89.2633 94.0063 89.07C94.3263 88.8733 94.6913 88.775 95.1013 88.775C95.5113 88.775 95.8729 88.8733 96.1863 89.07C96.5029 89.2633 96.7513 89.5267 96.9313 89.86C97.1113 90.19 97.2013 90.5567 97.2013 90.96C97.2013 91.3633 97.1113 91.7283 96.9313 92.055C96.7513 92.3817 96.5029 92.6417 96.1863 92.835C95.8729 93.025 95.5113 93.12 95.1013 93.12ZM95.1013 92.605C95.4113 92.605 95.6813 92.5333 95.9113 92.39C96.1446 92.2467 96.3246 92.05 96.4513 91.8C96.5813 91.55 96.6463 91.27 96.6463 90.96C96.6463 90.6467 96.5813 90.365 96.4513 90.115C96.3246 89.8617 96.1446 89.6617 95.9113 89.515C95.6813 89.365 95.4113 89.29 95.1013 89.29C94.7879 89.29 94.5146 89.365 94.2813 89.515C94.0479 89.6617 93.8663 89.8617 93.7363 90.115C93.6063 90.365 93.5413 90.6467 93.5413 90.96C93.5413 91.27 93.6063 91.55 93.7363 91.8C93.8663 92.05 94.0479 92.2467 94.2813 92.39C94.5146 92.5333 94.7879 92.605 95.1013 92.605ZM107.983 88.775C108.243 88.775 108.496 88.8317 108.743 88.945C108.989 89.055 109.193 89.2317 109.353 89.475C109.513 89.715 109.593 90.0267 109.593 90.41V93H109.013V90.545C109.013 90.0883 108.906 89.76 108.693 89.56C108.479 89.3567 108.206 89.255 107.873 89.255C107.653 89.255 107.439 89.3183 107.233 89.445C107.029 89.5717 106.861 89.745 106.728 89.965C106.598 90.185 106.533 90.4317 106.533 90.705V93H105.963V88.895H106.533V89.685C106.556 89.5683 106.634 89.44 106.768 89.3C106.904 89.1567 107.078 89.0333 107.288 88.93C107.501 88.8267 107.733 88.775 107.983 88.775ZM119.95 88.775C120.14 88.775 120.318 88.7967 120.485 88.84C120.655 88.88 120.803 88.9317 120.93 88.995C121.056 89.055 121.151 89.11 121.215 89.16L120.94 89.555C120.87 89.4883 120.748 89.4183 120.575 89.345C120.401 89.2683 120.206 89.23 119.99 89.23C119.723 89.23 119.495 89.285 119.305 89.395C119.118 89.505 119.025 89.665 119.025 89.875C119.025 90.0783 119.12 90.24 119.31 90.36C119.5 90.48 119.75 90.5783 120.06 90.655C120.296 90.715 120.511 90.79 120.705 90.88C120.901 90.97 121.058 91.0933 121.175 91.25C121.291 91.4033 121.35 91.6083 121.35 91.865C121.35 92.085 121.305 92.275 121.215 92.435C121.125 92.5917 121.001 92.72 120.845 92.82C120.691 92.92 120.516 92.995 120.32 93.045C120.123 93.095 119.916 93.12 119.7 93.12C119.476 93.12 119.27 93.095 119.08 93.045C118.89 92.995 118.726 92.935 118.59 92.865C118.456 92.795 118.355 92.73 118.285 92.67L118.57 92.225C118.656 92.315 118.798 92.4083 118.995 92.505C119.195 92.5983 119.428 92.645 119.695 92.645C120.005 92.645 120.26 92.5733 120.46 92.43C120.663 92.2867 120.765 92.0983 120.765 91.865C120.765 91.695 120.716 91.5583 120.62 91.455C120.523 91.3517 120.396 91.27 120.24 91.21C120.083 91.1467 119.916 91.0933 119.74 91.05C119.57 91.0067 119.406 90.955 119.25 90.895C119.096 90.8317 118.96 90.7533 118.84 90.66C118.72 90.5667 118.625 90.455 118.555 90.325C118.488 90.1917 118.455 90.0367 118.455 89.86C118.455 89.64 118.523 89.45 118.66 89.29C118.796 89.1267 118.978 89 119.205 88.91C119.435 88.82 119.683 88.775 119.95 88.775Z" fill="white"/>
</g>
<defs>
<filter id="filter0_d_23_166" x="-4" y="0" width="159" height="159" filterUnits="userSpaceOnUse" color-interpolation-filters="sRGB">
<feFlood flood-opacity="0" result="BackgroundImageFix"/>
<feColorMatrix in="SourceAlpha" type="matrix" values="0 0 0 0 0 0 0 0 0 0 0 0 0 0 0 0 0 0 127 0" result="hardAlpha"/>
<feOffset dy="4"/>
<feGaussianBlur stdDeviation="2"/>
<feComposite in2="hardAlpha" operator="out"/>
<feColorMatrix type="matrix" values="0 0 0 0 0 0 0 0 0 0 0 0 0 0 0 0 0 0 0.25 0"/>
<feBlend mode="normal" in2="BackgroundImageFix" result="effect1_dropShadow_23_166"/>
<feBlend mode="normal" in="SourceGraphic" in2="effect1_dropShadow_23_166" result="shape"/>
</filter>
</defs>
</svg>
