<svg width="101" height="36" viewBox="0 0 101 36" fill="none" xmlns="http://www.w3.org/2000/svg">
<g clip-path="url(#clip0_23_246)">
<path d="M13.418 15.504C13.418 16.944 13.146 18.1813 12.602 19.216C12.0687 20.24 11.3007 21.024 10.298 21.568C9.306 22.112 8.13267 22.384 6.778 22.384C5.79667 22.384 4.94333 22.256 4.218 22C3.49267 21.7547 2.91667 21.488 2.49 21.2C2.06333 20.9013 1.802 20.6773 1.706 20.528L3.498 16.384C3.626 16.5653 3.80733 16.7627 4.042 16.976C4.27667 17.1893 4.56467 17.376 4.906 17.536C5.24733 17.6853 5.63133 17.76 6.058 17.76C6.54867 17.76 6.986 17.6587 7.37 17.456C7.754 17.2533 8.058 16.9173 8.282 16.448C8.51667 15.9787 8.634 15.3547 8.634 14.576V0.879999H13.418V15.504ZM26.911 22V19.872C26.815 20.0853 26.5697 20.3947 26.175 20.8C25.791 21.2053 25.279 21.5733 24.639 21.904C23.999 22.224 23.2523 22.384 22.399 22.384C21.119 22.384 19.999 22.0747 19.039 21.456C18.079 20.8267 17.3323 19.9893 16.799 18.944C16.2657 17.888 15.999 16.72 15.999 15.44C15.999 14.16 16.2657 12.9973 16.799 11.952C17.3323 10.896 18.079 10.0533 19.039 9.424C19.999 8.79467 21.119 8.48 22.399 8.48C23.2203 8.48 23.9403 8.61333 24.559 8.88C25.1777 9.136 25.679 9.44533 26.063 9.808C26.447 10.16 26.7137 10.4853 26.863 10.784V8.864H31.695V22H26.911ZM20.767 15.44C20.767 16.0373 20.9057 16.576 21.183 17.056C21.4603 17.5253 21.8283 17.8933 22.287 18.16C22.7563 18.4267 23.2737 18.56 23.839 18.56C24.4257 18.56 24.943 18.4267 25.391 18.16C25.839 17.8933 26.191 17.5253 26.447 17.056C26.7137 16.576 26.847 16.0373 26.847 15.44C26.847 14.8427 26.7137 14.3093 26.447 13.84C26.191 13.36 25.839 12.9867 25.391 12.72C24.943 12.4427 24.4257 12.304 23.839 12.304C23.2737 12.304 22.7563 12.4427 22.287 12.72C21.8283 12.9867 21.4603 13.36 21.183 13.84C20.9057 14.3093 20.767 14.8427 20.767 15.44ZM43.8215 8.48C44.7388 8.48 45.6348 8.66667 46.5095 9.04C47.3842 9.41333 48.1042 10.0053 48.6695 10.816C49.2348 11.616 49.5175 12.672 49.5175 13.984V22H44.6375V14.784C44.6375 13.8453 44.4135 13.1413 43.9655 12.672C43.5175 12.192 42.9308 11.952 42.2055 11.952C41.7255 11.952 41.2722 12.08 40.8455 12.336C40.4295 12.5813 40.0882 12.9333 39.8215 13.392C39.5655 13.84 39.4375 14.3573 39.4375 14.944V22H34.5735V8.864H39.4375V10.8C39.5655 10.448 39.8322 10.096 40.2375 9.744C40.6535 9.38133 41.1708 9.08267 41.7895 8.848C42.4188 8.60267 43.0962 8.48 43.8215 8.48ZM56.216 16.464C56.248 16.9333 56.3973 17.3493 56.664 17.712C56.9307 18.0747 57.2987 18.3627 57.768 18.576C58.248 18.7787 58.8133 18.88 59.464 18.88C60.0827 18.88 60.6373 18.816 61.128 18.688C61.6293 18.56 62.0613 18.4 62.424 18.208C62.7973 18.016 63.0853 17.8187 63.288 17.616L65.176 20.624C64.9093 20.912 64.5307 21.1947 64.04 21.472C63.56 21.7387 62.9253 21.9573 62.136 22.128C61.3467 22.2987 60.3493 22.384 59.144 22.384C57.6933 22.384 56.4027 22.112 55.272 21.568C54.1413 21.024 53.2507 20.224 52.6 19.168C51.9493 18.112 51.624 16.8213 51.624 15.296C51.624 14.016 51.9013 12.864 52.456 11.84C53.0213 10.8053 53.8373 9.98933 54.904 9.392C55.9707 8.784 57.256 8.48 58.76 8.48C60.1893 8.48 61.4267 8.74133 62.472 9.264C63.528 9.78667 64.3387 10.5653 64.904 11.6C65.48 12.624 65.768 13.904 65.768 15.44C65.768 15.5253 65.7627 15.696 65.752 15.952C65.752 16.208 65.7413 16.3787 65.72 16.464H56.216ZM61.192 13.92C61.1813 13.5787 61.0907 13.2427 60.92 12.912C60.7493 12.5707 60.4933 12.2933 60.152 12.08C59.8107 11.856 59.3733 11.744 58.84 11.744C58.3067 11.744 57.8533 11.8507 57.48 12.064C57.1173 12.2667 56.84 12.5333 56.648 12.864C56.456 13.1947 56.3493 13.5467 56.328 13.92H61.192ZM72.1535 16.464C72.1855 16.9333 72.3348 17.3493 72.6015 17.712C72.8682 18.0747 73.2362 18.3627 73.7055 18.576C74.1855 18.7787 74.7508 18.88 75.4015 18.88C76.0202 18.88 76.5748 18.816 77.0655 18.688C77.5668 18.56 77.9988 18.4 78.3615 18.208C78.7348 18.016 79.0228 17.8187 79.2255 17.616L81.1135 20.624C80.8468 20.912 80.4682 21.1947 79.9775 21.472C79.4975 21.7387 78.8628 21.9573 78.0735 22.128C77.2842 22.2987 76.2868 22.384 75.0815 22.384C73.6308 22.384 72.3402 22.112 71.2095 21.568C70.0788 21.024 69.1882 20.224 68.5375 19.168C67.8868 18.112 67.5615 16.8213 67.5615 15.296C67.5615 14.016 67.8388 12.864 68.3935 11.84C68.9588 10.8053 69.7748 9.98933 70.8415 9.392C71.9082 8.784 73.1935 8.48 74.6975 8.48C76.1268 8.48 77.3642 8.74133 78.4095 9.264C79.4655 9.78667 80.2762 10.5653 80.8415 11.6C81.4175 12.624 81.7055 13.904 81.7055 15.44C81.7055 15.5253 81.7002 15.696 81.6895 15.952C81.6895 16.208 81.6788 16.3787 81.6575 16.464H72.1535ZM77.1295 13.92C77.1188 13.5787 77.0282 13.2427 76.8575 12.912C76.6868 12.5707 76.4308 12.2933 76.0895 12.08C75.7482 11.856 75.3108 11.744 74.7775 11.744C74.2442 11.744 73.7908 11.8507 73.4175 12.064C73.0548 12.2667 72.7775 12.5333 72.5855 12.864C72.3935 13.1947 72.2868 13.5467 72.2655 13.92H77.1295ZM84.139 22V-0.0160007H89.003V10.784C89.099 10.4853 89.3443 10.16 89.739 9.808C90.1443 9.44533 90.6723 9.136 91.323 8.88C91.9843 8.61333 92.731 8.48 93.563 8.48C94.843 8.48 95.9523 8.79467 96.891 9.424C97.8297 10.0533 98.555 10.896 99.067 11.952C99.579 12.9973 99.835 14.16 99.835 15.44C99.835 16.72 99.579 17.888 99.067 18.944C98.555 19.9893 97.8297 20.8267 96.891 21.456C95.9523 22.0747 94.843 22.384 93.563 22.384C92.859 22.384 92.1923 22.256 91.563 22C90.9443 21.7547 90.4057 21.44 89.947 21.056C89.499 20.6613 89.1683 20.2667 88.955 19.872V22H84.139ZM95.067 15.44C95.067 14.8427 94.9337 14.3093 94.667 13.84C94.411 13.36 94.0537 12.9867 93.595 12.72C93.147 12.4427 92.6403 12.304 92.075 12.304C91.4883 12.304 90.9603 12.4427 90.491 12.72C90.0323 12.9867 89.6697 13.36 89.403 13.84C89.1363 14.3093 89.003 14.8427 89.003 15.44C89.003 16.0373 89.1363 16.576 89.403 17.056C89.6697 17.5253 90.0323 17.8933 90.491 18.16C90.9603 18.4267 91.4883 18.56 92.075 18.56C92.6403 18.56 93.147 18.4267 93.595 18.16C94.0537 17.8933 94.411 17.5253 94.667 17.056C94.9337 16.576 95.067 16.0373 95.067 15.44Z" fill="black"/>
<path d="M2.73136 28.28C3.09803 28.28 3.4097 28.3233 3.66636 28.41C3.92636 28.4967 4.1297 28.5883 4.27636 28.685C4.42303 28.7783 4.50803 28.8383 4.53136 28.865L4.22136 29.335C4.17136 29.2917 4.08303 29.2283 3.95636 29.145C3.83303 29.0617 3.67303 28.9867 3.47636 28.92C3.2797 28.85 3.04636 28.815 2.77636 28.815C2.34636 28.815 2.00803 28.905 1.76136 29.085C1.5147 29.265 1.39136 29.515 1.39136 29.835C1.39136 30.0517 1.45636 30.2417 1.58636 30.405C1.71636 30.565 1.89303 30.71 2.11636 30.84C2.34303 30.97 2.59803 31.1 2.88136 31.23C3.1047 31.33 3.32803 31.4417 3.55136 31.565C3.77803 31.6883 3.9847 31.8333 4.17136 32C4.36136 32.1667 4.51303 32.36 4.62636 32.58C4.74303 32.8 4.80136 33.055 4.80136 33.345C4.80136 33.6083 4.74803 33.8483 4.64136 34.065C4.5347 34.2817 4.38303 34.47 4.18636 34.63C3.99303 34.7867 3.76303 34.9083 3.49636 34.995C3.2297 35.0783 2.93636 35.12 2.61636 35.12C2.23636 35.12 1.89136 35.0717 1.58136 34.975C1.27136 34.875 1.02136 34.7733 0.831363 34.67C0.641363 34.5633 0.536363 34.5 0.516363 34.48L0.851363 33.985C0.891363 34.0183 0.961363 34.0683 1.06136 34.135C1.1647 34.1983 1.29303 34.265 1.44636 34.335C1.5997 34.405 1.77636 34.4633 1.97636 34.51C2.1797 34.5567 2.3997 34.58 2.63636 34.58C3.1497 34.58 3.53803 34.46 3.80136 34.22C4.06803 33.98 4.20136 33.6783 4.20136 33.315C4.20136 33.0317 4.11636 32.79 3.94636 32.59C3.77636 32.3867 3.55803 32.2083 3.29136 32.055C3.0247 31.9017 2.74636 31.7567 2.45636 31.62C2.1497 31.4767 1.87136 31.3233 1.62136 31.16C1.37136 30.9967 1.17136 30.8067 1.02136 30.59C0.871363 30.3733 0.796363 30.1133 0.796363 29.81C0.796363 29.5133 0.881363 29.25 1.05136 29.02C1.2247 28.79 1.45636 28.61 1.74636 28.48C2.0397 28.3467 2.36803 28.28 2.73136 28.28ZM15.4431 35.12C15.0331 35.12 14.6681 35.025 14.3481 34.835C14.0314 34.6417 13.7814 34.3817 13.5981 34.055C13.4181 33.7283 13.3281 33.3633 13.3281 32.96C13.3281 32.5567 13.4181 32.19 13.5981 31.86C13.7814 31.5267 14.0314 31.2633 14.3481 31.07C14.6681 30.8733 15.0331 30.775 15.4431 30.775C15.8531 30.775 16.2147 30.8733 16.5281 31.07C16.8447 31.2633 17.0931 31.5267 17.2731 31.86C17.4531 32.19 17.5431 32.5567 17.5431 32.96C17.5431 33.3633 17.4531 33.7283 17.2731 34.055C17.0931 34.3817 16.8447 34.6417 16.5281 34.835C16.2147 35.025 15.8531 35.12 15.4431 35.12ZM15.4431 34.605C15.7531 34.605 16.0231 34.5333 16.2531 34.39C16.4864 34.2467 16.6664 34.05 16.7931 33.8C16.9231 33.55 16.9881 33.27 16.9881 32.96C16.9881 32.6467 16.9231 32.365 16.7931 32.115C16.6664 31.8617 16.4864 31.6617 16.2531 31.515C16.0231 31.365 15.7531 31.29 15.4431 31.29C15.1297 31.29 14.8564 31.365 14.6231 31.515C14.3897 31.6617 14.2081 31.8617 14.0781 32.115C13.9481 32.365 13.8831 32.6467 13.8831 32.96C13.8831 33.27 13.9481 33.55 14.0781 33.8C14.2081 34.05 14.3897 34.2467 14.6231 34.39C14.8564 34.5333 15.1297 34.605 15.4431 34.605ZM26.8945 35H26.3145V28.12H26.8945V35ZM36.4967 33.04C36.4967 33.52 36.6017 33.9017 36.8117 34.185C37.025 34.465 37.345 34.605 37.7717 34.605C38.2017 34.605 38.5217 34.465 38.7317 34.185C38.9417 33.9017 39.0467 33.52 39.0467 33.04V30.895H39.6167V33.14C39.6167 33.5233 39.545 33.865 39.4017 34.165C39.2583 34.4617 39.05 34.695 38.7767 34.865C38.5033 35.035 38.1683 35.12 37.7717 35.12C37.3783 35.12 37.045 35.035 36.7717 34.865C36.4983 34.695 36.29 34.4617 36.1467 34.165C36.0033 33.865 35.9317 33.5233 35.9317 33.14V30.895H36.4967V33.04ZM48.2288 30.895H49.0838V29.21H49.6488V30.895H50.7688V31.41H49.6488V33.845C49.6488 34.1183 49.6988 34.3133 49.7988 34.43C49.8988 34.5467 50.0238 34.605 50.1738 34.605C50.3171 34.605 50.4255 34.58 50.4988 34.53C50.5721 34.48 50.6155 34.4467 50.6288 34.43L50.8938 34.865C50.8738 34.8817 50.8288 34.9117 50.7588 34.955C50.6888 34.995 50.5971 35.0317 50.4838 35.065C50.3705 35.1017 50.2338 35.12 50.0738 35.12C49.7971 35.12 49.5621 35.0317 49.3688 34.855C49.1788 34.675 49.0838 34.3883 49.0838 33.995V31.41H48.2288V30.895ZM59.5578 35V30.895H60.1228V35H59.5578ZM59.8478 29.23C59.7278 29.23 59.6245 29.1883 59.5378 29.105C59.4545 29.0183 59.4128 28.915 59.4128 28.795C59.4128 28.6717 59.4562 28.5683 59.5428 28.485C59.6295 28.3983 59.7312 28.355 59.8478 28.355C59.9278 28.355 60.0012 28.375 60.0678 28.415C60.1378 28.455 60.1928 28.5083 60.2328 28.575C60.2762 28.6383 60.2978 28.7117 60.2978 28.795C60.2978 28.915 60.2528 29.0183 60.1628 29.105C60.0762 29.1883 59.9712 29.23 59.8478 29.23ZM71.1013 35.12C70.6913 35.12 70.3263 35.025 70.0063 34.835C69.6896 34.6417 69.4396 34.3817 69.2563 34.055C69.0763 33.7283 68.9863 33.3633 68.9863 32.96C68.9863 32.5567 69.0763 32.19 69.2563 31.86C69.4396 31.5267 69.6896 31.2633 70.0063 31.07C70.3263 30.8733 70.6913 30.775 71.1013 30.775C71.5113 30.775 71.8729 30.8733 72.1863 31.07C72.5029 31.2633 72.7513 31.5267 72.9313 31.86C73.1113 32.19 73.2013 32.5567 73.2013 32.96C73.2013 33.3633 73.1113 33.7283 72.9313 34.055C72.7513 34.3817 72.5029 34.6417 72.1863 34.835C71.8729 35.025 71.5113 35.12 71.1013 35.12ZM71.1013 34.605C71.4113 34.605 71.6813 34.5333 71.9113 34.39C72.1446 34.2467 72.3246 34.05 72.4513 33.8C72.5813 33.55 72.6463 33.27 72.6463 32.96C72.6463 32.6467 72.5813 32.365 72.4513 32.115C72.3246 31.8617 72.1446 31.6617 71.9113 31.515C71.6813 31.365 71.4113 31.29 71.1013 31.29C70.7879 31.29 70.5146 31.365 70.2813 31.515C70.0479 31.6617 69.8663 31.8617 69.7363 32.115C69.6063 32.365 69.5413 32.6467 69.5413 32.96C69.5413 33.27 69.6063 33.55 69.7363 33.8C69.8663 34.05 70.0479 34.2467 70.2813 34.39C70.5146 34.5333 70.7879 34.605 71.1013 34.605ZM83.9827 30.775C84.2427 30.775 84.496 30.8317 84.7427 30.945C84.9894 31.055 85.1927 31.2317 85.3527 31.475C85.5127 31.715 85.5927 32.0267 85.5927 32.41V35H85.0127V32.545C85.0127 32.0883 84.906 31.76 84.6927 31.56C84.4794 31.3567 84.206 31.255 83.8727 31.255C83.6527 31.255 83.4394 31.3183 83.2327 31.445C83.0294 31.5717 82.861 31.745 82.7277 31.965C82.5977 32.185 82.5327 32.4317 82.5327 32.705V35H81.9627V30.895H82.5327V31.685C82.556 31.5683 82.6344 31.44 82.7677 31.3C82.9044 31.1567 83.0777 31.0333 83.2877 30.93C83.501 30.8267 83.7327 30.775 83.9827 30.775ZM95.9496 30.775C96.1396 30.775 96.3179 30.7967 96.4846 30.84C96.6546 30.88 96.8029 30.9317 96.9296 30.995C97.0562 31.055 97.1512 31.11 97.2146 31.16L96.9396 31.555C96.8696 31.4883 96.7479 31.4183 96.5746 31.345C96.4012 31.2683 96.2062 31.23 95.9896 31.23C95.7229 31.23 95.4946 31.285 95.3046 31.395C95.1179 31.505 95.0246 31.665 95.0246 31.875C95.0246 32.0783 95.1196 32.24 95.3096 32.36C95.4996 32.48 95.7496 32.5783 96.0596 32.655C96.2962 32.715 96.5112 32.79 96.7046 32.88C96.9012 32.97 97.0579 33.0933 97.1746 33.25C97.2912 33.4033 97.3496 33.6083 97.3496 33.865C97.3496 34.085 97.3046 34.275 97.2146 34.435C97.1246 34.5917 97.0012 34.72 96.8446 34.82C96.6912 34.92 96.5162 34.995 96.3196 35.045C96.1229 35.095 95.9162 35.12 95.6996 35.12C95.4762 35.12 95.2696 35.095 95.0796 35.045C94.8896 34.995 94.7262 34.935 94.5896 34.865C94.4562 34.795 94.3546 34.73 94.2846 34.67L94.5696 34.225C94.6562 34.315 94.7979 34.4083 94.9946 34.505C95.1946 34.5983 95.4279 34.645 95.6946 34.645C96.0046 34.645 96.2596 34.5733 96.4596 34.43C96.6629 34.2867 96.7646 34.0983 96.7646 33.865C96.7646 33.695 96.7162 33.5583 96.6196 33.455C96.5229 33.3517 96.3962 33.27 96.2396 33.21C96.0829 33.1467 95.9162 33.0933 95.7396 33.05C95.5696 33.0067 95.4062 32.955 95.2496 32.895C95.0962 32.8317 94.9596 32.7533 94.8396 32.66C94.7196 32.5667 94.6246 32.455 94.5546 32.325C94.4879 32.1917 94.4546 32.0367 94.4546 31.86C94.4546 31.64 94.5229 31.45 94.6596 31.29C94.7962 31.1267 94.9779 31 95.2046 30.91C95.4346 30.82 95.6829 30.775 95.9496 30.775Z" fill="black"/>
</g>
<defs>
<clipPath id="clip0_23_246">
<rect width="101" height="36" fill="white"/>
</clipPath>
</defs>
</svg>
