<svg width="32" height="32" viewBox="0 0 32 32" fill="none" xmlns="http://www.w3.org/2000/svg">
<g clip-path="url(#clip0_48_163)">
<rect width="31.8294" height="31.8294" rx="4" fill="black"/>
<path d="M8.98773 24.099V21.525L20.3727 21.5448C20.9535 21.5448 21.3957 21.4128 21.6993 21.1488C22.0161 20.8716 22.1745 20.4294 22.1745 19.8222C22.1745 19.215 22.0161 18.7794 21.6993 18.5154C21.3957 18.2382 20.9535 18.0996 20.3727 18.0996H13.2843C11.8191 18.0996 10.6773 17.7498 9.85893 17.0502C9.05373 16.3374 8.65113 15.2946 8.65113 13.9218C8.65113 12.549 9.05373 11.5128 9.85893 10.8132C10.6773 10.1004 11.8191 9.744 13.2843 9.744H24.4119V12.318L13.6209 12.2982C13.0533 12.2982 12.6111 12.4302 12.2943 12.6942C11.9775 12.945 11.8191 13.3542 11.8191 13.9218C11.8191 14.4894 11.9775 14.9052 12.2943 15.1692C12.6111 15.42 13.0533 15.5454 13.6209 15.5454H20.7093C22.1745 15.5454 23.3097 15.9084 24.1149 16.6344C24.9333 17.3472 25.3425 18.4098 25.3425 19.8222C25.3425 21.2214 24.9333 22.284 24.1149 23.01C23.3097 23.736 22.1745 24.099 20.7093 24.099H8.98773Z" fill="white"/>
<path fill-rule="evenodd" clip-rule="evenodd" d="M6.11741 21.0913C7.12338 21.8386 8.68982 22.2122 10.8167 22.2122H13.3389C14.9053 22.2122 16.1412 22.0111 17.0466 21.6087C17.952 21.1919 18.5987 20.5668 18.9867 19.7332C19.3747 18.8997 19.5687 17.8506 19.5687 16.586V12.7743H16.1197V16.586C16.1197 17.6782 15.861 18.4255 15.3436 18.8279C14.8406 19.2159 13.9784 19.4099 12.7568 19.4099H11.3988C10.3928 19.4099 9.5952 19.2806 9.00599 19.0219C8.41677 18.7488 8.12217 18.2171 8.12217 17.4267C8.12217 17.3117 8.12935 17.168 8.14372 16.9956C8.15809 16.8231 8.17965 16.6435 8.20839 16.4566H4.75934C4.67312 16.8447 4.63 17.2255 4.63 17.5991C4.63 19.1656 5.12581 20.3296 6.11741 21.0913ZM16.1197 9.29033H19.5687V6.69152H16.1197V9.29033Z" fill="#FF9900"/>
</g>
<defs>
<clipPath id="clip0_48_163">
<rect width="31.8294" height="31.8294" rx="4" fill="white"/>
</clipPath>
</defs>
</svg>
