<?xml version="1.0" standalone="no"?>
<!DOCTYPE svg PUBLIC "-//W3C//DTD SVG 20010904//EN"
 "http://www.w3.org/TR/2001/REC-SVG-20010904/DTD/svg10.dtd">
<svg version="1.0" xmlns="http://www.w3.org/2000/svg"
 width="512.000000pt" height="512.000000pt" viewBox="0 0 512.000000 512.000000"
 preserveAspectRatio="xMidYMid meet">

<g transform="translate(0.000000,512.000000) scale(0.100000,-0.100000)"
fill="#000000" stroke="none">
<path d="M1005 3941 c-40 -10 -66 -27 -90 -59 -18 -24 -20 -45 -23 -184 l-3
-158 -177 0 c-191 0 -218 -6 -239 -52 -15 -30 -1 -83 26 -97 20 -11 974 -26
1025 -17 70 13 99 85 57 137 -19 24 -20 24 -275 27 l-256 3 0 119 0 120 1320
0 1320 0 0 -1040 0 -1040 -582 2 -582 3 -7 26 c-23 88 -109 202 -191 255 -231
148 -553 36 -649 -227 l-22 -59 -303 0 -304 0 0 204 0 204 136 4 c135 3 136 3
160 31 13 15 24 37 24 48 0 28 -26 75 -45 83 -9 3 -253 6 -541 6 -441 0 -530
-2 -553 -15 -48 -24 -56 -81 -16 -120 l24 -25 326 0 325 0 0 -267 c1 -195 4
-272 13 -284 28 -37 48 -39 409 -39 l354 0 13 -50 c27 -106 130 -220 243 -269
155 -69 355 -31 478 91 51 52 120 171 120 210 0 17 37 18 729 18 l729 0 6 -30
c30 -150 193 -296 356 -319 214 -29 413 92 477 292 l18 55 97 4 c109 4 139 18
171 79 16 31 17 61 14 324 -3 250 -6 297 -21 338 -18 48 -456 841 -492 890
-10 15 -41 38 -68 52 l-50 25 -312 0 -313 0 -3 304 c-3 289 -4 306 -24 332
-11 15 -33 37 -48 48 -27 21 -31 21 -1389 23 -749 0 -1375 -2 -1392 -6z m3467
-874 c7 -8 115 -198 240 -423 173 -310 230 -422 238 -463 5 -29 10 -150 10
-267 l0 -214 -59 0 -59 0 -22 61 c-67 177 -225 289 -410 289 -197 0 -361 -115
-421 -294 l-18 -51 -55 -3 -56 -3 0 691 0 690 299 0 c236 0 302 -3 313 -13z"/>
<path d="M4024 2926 l-34 -34 0 -292 0 -292 34 -34 34 -34 299 0 c254 0 302 2
321 16 27 18 52 65 52 95 0 25 -270 519 -304 557 -41 46 -66 52 -222 52 l-146
0 -34 -34z m359 -263 c42 -76 92 -166 112 -200 l35 -63 -190 0 -190 0 0 200 0
200 78 0 78 0 77 -137z"/>
<path d="M953 3293 c-13 -2 -32 -16 -43 -30 -19 -24 -20 -40 -20 -294 l0 -267
-126 -4 c-118 -3 -127 -4 -145 -27 -26 -32 -25 -82 4 -109 21 -20 34 -22 145
-22 l122 0 0 -60 c0 -51 4 -65 25 -85 32 -33 83 -34 113 -2 17 18 22 36 22 79
l0 55 212 6 c116 4 356 7 534 7 177 0 330 3 339 6 24 10 46 60 39 89 -3 14
-18 34 -31 45 -25 19 -42 20 -559 20 l-534 0 0 269 c0 148 -3 277 -6 286 -5
13 -57 48 -66 44 -2 -1 -13 -4 -25 -6z"/>
<path d="M29 3091 c-36 -36 -37 -73 -4 -106 l24 -25 331 0 c315 0 331 1 350
20 44 44 31 109 -26 130 -14 6 -163 10 -335 10 l-311 0 -29 -29z"/>
</g>
</svg>
