<svg width="151" height="151" viewBox="0 0 151 151" fill="none" xmlns="http://www.w3.org/2000/svg">
<g filter="url(#filter0_d_23_106)">
<path d="M37.418 108.504C37.418 109.944 37.146 111.181 36.602 112.216C36.0687 113.24 35.3007 114.024 34.298 114.568C33.306 115.112 32.1327 115.384 30.778 115.384C29.7967 115.384 28.9433 115.256 28.218 115C27.4927 114.755 26.9167 114.488 26.49 114.2C26.0633 113.901 25.802 113.677 25.706 113.528L27.498 109.384C27.626 109.565 27.8073 109.763 28.042 109.976C28.2767 110.189 28.5647 110.376 28.906 110.536C29.2473 110.685 29.6313 110.76 30.058 110.76C30.5487 110.76 30.986 110.659 31.37 110.456C31.754 110.253 32.058 109.917 32.282 109.448C32.5167 108.979 32.634 108.355 32.634 107.576V93.88H37.418V108.504ZM50.911 115V112.872C50.815 113.085 50.5697 113.395 50.175 113.8C49.791 114.205 49.279 114.573 48.639 114.904C47.999 115.224 47.2523 115.384 46.399 115.384C45.119 115.384 43.999 115.075 43.039 114.456C42.079 113.827 41.3323 112.989 40.799 111.944C40.2657 110.888 39.999 109.72 39.999 108.44C39.999 107.16 40.2657 105.997 40.799 104.952C41.3323 103.896 42.079 103.053 43.039 102.424C43.999 101.795 45.119 101.48 46.399 101.48C47.2203 101.48 47.9403 101.613 48.559 101.88C49.1777 102.136 49.679 102.445 50.063 102.808C50.447 103.16 50.7137 103.485 50.863 103.784V101.864H55.695V115H50.911ZM44.767 108.44C44.767 109.037 44.9057 109.576 45.183 110.056C45.4603 110.525 45.8283 110.893 46.287 111.16C46.7563 111.427 47.2737 111.56 47.839 111.56C48.4257 111.56 48.943 111.427 49.391 111.16C49.839 110.893 50.191 110.525 50.447 110.056C50.7137 109.576 50.847 109.037 50.847 108.44C50.847 107.843 50.7137 107.309 50.447 106.84C50.191 106.36 49.839 105.987 49.391 105.72C48.943 105.443 48.4257 105.304 47.839 105.304C47.2737 105.304 46.7563 105.443 46.287 105.72C45.8283 105.987 45.4603 106.36 45.183 106.84C44.9057 107.309 44.767 107.843 44.767 108.44ZM67.8215 101.48C68.7388 101.48 69.6348 101.667 70.5095 102.04C71.3842 102.413 72.1042 103.005 72.6695 103.816C73.2348 104.616 73.5175 105.672 73.5175 106.984V115H68.6375V107.784C68.6375 106.845 68.4135 106.141 67.9655 105.672C67.5175 105.192 66.9308 104.952 66.2055 104.952C65.7255 104.952 65.2722 105.08 64.8455 105.336C64.4295 105.581 64.0882 105.933 63.8215 106.392C63.5655 106.84 63.4375 107.357 63.4375 107.944V115H58.5735V101.864H63.4375V103.8C63.5655 103.448 63.8322 103.096 64.2375 102.744C64.6535 102.381 65.1708 102.083 65.7895 101.848C66.4188 101.603 67.0962 101.48 67.8215 101.48ZM80.216 109.464C80.248 109.933 80.3973 110.349 80.664 110.712C80.9307 111.075 81.2987 111.363 81.768 111.576C82.248 111.779 82.8133 111.88 83.464 111.88C84.0827 111.88 84.6373 111.816 85.128 111.688C85.6293 111.56 86.0613 111.4 86.424 111.208C86.7973 111.016 87.0853 110.819 87.288 110.616L89.176 113.624C88.9093 113.912 88.5307 114.195 88.04 114.472C87.56 114.739 86.9253 114.957 86.136 115.128C85.3467 115.299 84.3493 115.384 83.144 115.384C81.6933 115.384 80.4027 115.112 79.272 114.568C78.1413 114.024 77.2507 113.224 76.6 112.168C75.9493 111.112 75.624 109.821 75.624 108.296C75.624 107.016 75.9013 105.864 76.456 104.84C77.0213 103.805 77.8373 102.989 78.904 102.392C79.9707 101.784 81.256 101.48 82.76 101.48C84.1893 101.48 85.4267 101.741 86.472 102.264C87.528 102.787 88.3387 103.565 88.904 104.6C89.48 105.624 89.768 106.904 89.768 108.44C89.768 108.525 89.7627 108.696 89.752 108.952C89.752 109.208 89.7413 109.379 89.72 109.464H80.216ZM85.192 106.92C85.1813 106.579 85.0907 106.243 84.92 105.912C84.7493 105.571 84.4933 105.293 84.152 105.08C83.8107 104.856 83.3733 104.744 82.84 104.744C82.3067 104.744 81.8533 104.851 81.48 105.064C81.1173 105.267 80.84 105.533 80.648 105.864C80.456 106.195 80.3493 106.547 80.328 106.92H85.192ZM96.1535 109.464C96.1855 109.933 96.3348 110.349 96.6015 110.712C96.8682 111.075 97.2362 111.363 97.7055 111.576C98.1855 111.779 98.7508 111.88 99.4015 111.88C100.02 111.88 100.575 111.816 101.066 111.688C101.567 111.56 101.999 111.4 102.362 111.208C102.735 111.016 103.023 110.819 103.226 110.616L105.114 113.624C104.847 113.912 104.468 114.195 103.978 114.472C103.498 114.739 102.863 114.957 102.074 115.128C101.284 115.299 100.287 115.384 99.0815 115.384C97.6308 115.384 96.3402 115.112 95.2095 114.568C94.0788 114.024 93.1882 113.224 92.5375 112.168C91.8868 111.112 91.5615 109.821 91.5615 108.296C91.5615 107.016 91.8388 105.864 92.3935 104.84C92.9588 103.805 93.7748 102.989 94.8415 102.392C95.9082 101.784 97.1935 101.48 98.6975 101.48C100.127 101.48 101.364 101.741 102.41 102.264C103.466 102.787 104.276 103.565 104.842 104.6C105.418 105.624 105.706 106.904 105.706 108.44C105.706 108.525 105.7 108.696 105.69 108.952C105.69 109.208 105.679 109.379 105.658 109.464H96.1535ZM101.13 106.92C101.119 106.579 101.028 106.243 100.858 105.912C100.687 105.571 100.431 105.293 100.09 105.08C99.7482 104.856 99.3108 104.744 98.7775 104.744C98.2442 104.744 97.7908 104.851 97.4175 105.064C97.0548 105.267 96.7775 105.533 96.5855 105.864C96.3935 106.195 96.2868 106.547 96.2655 106.92H101.13ZM108.139 115V92.984H113.003V103.784C113.099 103.485 113.344 103.16 113.739 102.808C114.144 102.445 114.672 102.136 115.323 101.88C115.984 101.613 116.731 101.48 117.563 101.48C118.843 101.48 119.952 101.795 120.891 102.424C121.83 103.053 122.555 103.896 123.067 104.952C123.579 105.997 123.835 107.16 123.835 108.44C123.835 109.72 123.579 110.888 123.067 111.944C122.555 112.989 121.83 113.827 120.891 114.456C119.952 115.075 118.843 115.384 117.563 115.384C116.859 115.384 116.192 115.256 115.563 115C114.944 114.755 114.406 114.44 113.947 114.056C113.499 113.661 113.168 113.267 112.955 112.872V115H108.139ZM119.067 108.44C119.067 107.843 118.934 107.309 118.667 106.84C118.411 106.36 118.054 105.987 117.595 105.72C117.147 105.443 116.64 105.304 116.075 105.304C115.488 105.304 114.96 105.443 114.491 105.72C114.032 105.987 113.67 106.36 113.403 106.84C113.136 107.309 113.003 107.843 113.003 108.44C113.003 109.037 113.136 109.576 113.403 110.056C113.67 110.525 114.032 110.893 114.491 111.16C114.96 111.427 115.488 111.56 116.075 111.56C116.64 111.56 117.147 111.427 117.595 111.16C118.054 110.893 118.411 110.525 118.667 110.056C118.934 109.576 119.067 109.037 119.067 108.44Z" fill="white"/>
<path d="M26.7314 121.28C27.098 121.28 27.4097 121.323 27.6664 121.41C27.9264 121.497 28.1297 121.588 28.2764 121.685C28.423 121.778 28.508 121.838 28.5314 121.865L28.2214 122.335C28.1714 122.292 28.083 122.228 27.9564 122.145C27.833 122.062 27.673 121.987 27.4764 121.92C27.2797 121.85 27.0464 121.815 26.7764 121.815C26.3464 121.815 26.008 121.905 25.7614 122.085C25.5147 122.265 25.3914 122.515 25.3914 122.835C25.3914 123.052 25.4564 123.242 25.5864 123.405C25.7164 123.565 25.893 123.71 26.1164 123.84C26.343 123.97 26.598 124.1 26.8814 124.23C27.1047 124.33 27.328 124.442 27.5514 124.565C27.778 124.688 27.9847 124.833 28.1714 125C28.3614 125.167 28.513 125.36 28.6264 125.58C28.743 125.8 28.8014 126.055 28.8014 126.345C28.8014 126.608 28.748 126.848 28.6414 127.065C28.5347 127.282 28.383 127.47 28.1864 127.63C27.993 127.787 27.763 127.908 27.4964 127.995C27.2297 128.078 26.9364 128.12 26.6164 128.12C26.2364 128.12 25.8914 128.072 25.5814 127.975C25.2714 127.875 25.0214 127.773 24.8314 127.67C24.6414 127.563 24.5364 127.5 24.5164 127.48L24.8514 126.985C24.8914 127.018 24.9614 127.068 25.0614 127.135C25.1647 127.198 25.293 127.265 25.4464 127.335C25.5997 127.405 25.7764 127.463 25.9764 127.51C26.1797 127.557 26.3997 127.58 26.6364 127.58C27.1497 127.58 27.538 127.46 27.8014 127.22C28.068 126.98 28.2014 126.678 28.2014 126.315C28.2014 126.032 28.1164 125.79 27.9464 125.59C27.7764 125.387 27.558 125.208 27.2914 125.055C27.0247 124.902 26.7464 124.757 26.4564 124.62C26.1497 124.477 25.8714 124.323 25.6214 124.16C25.3714 123.997 25.1714 123.807 25.0214 123.59C24.8714 123.373 24.7964 123.113 24.7964 122.81C24.7964 122.513 24.8814 122.25 25.0514 122.02C25.2247 121.79 25.4564 121.61 25.7464 121.48C26.0397 121.347 26.368 121.28 26.7314 121.28ZM39.4431 128.12C39.0331 128.12 38.6681 128.025 38.3481 127.835C38.0314 127.642 37.7814 127.382 37.5981 127.055C37.4181 126.728 37.3281 126.363 37.3281 125.96C37.3281 125.557 37.4181 125.19 37.5981 124.86C37.7814 124.527 38.0314 124.263 38.3481 124.07C38.6681 123.873 39.0331 123.775 39.4431 123.775C39.8531 123.775 40.2147 123.873 40.5281 124.07C40.8447 124.263 41.0931 124.527 41.2731 124.86C41.4531 125.19 41.5431 125.557 41.5431 125.96C41.5431 126.363 41.4531 126.728 41.2731 127.055C41.0931 127.382 40.8447 127.642 40.5281 127.835C40.2147 128.025 39.8531 128.12 39.4431 128.12ZM39.4431 127.605C39.7531 127.605 40.0231 127.533 40.2531 127.39C40.4864 127.247 40.6664 127.05 40.7931 126.8C40.9231 126.55 40.9881 126.27 40.9881 125.96C40.9881 125.647 40.9231 125.365 40.7931 125.115C40.6664 124.862 40.4864 124.662 40.2531 124.515C40.0231 124.365 39.7531 124.29 39.4431 124.29C39.1297 124.29 38.8564 124.365 38.6231 124.515C38.3897 124.662 38.2081 124.862 38.0781 125.115C37.9481 125.365 37.8831 125.647 37.8831 125.96C37.8831 126.27 37.9481 126.55 38.0781 126.8C38.2081 127.05 38.3897 127.247 38.6231 127.39C38.8564 127.533 39.1297 127.605 39.4431 127.605ZM50.8945 128H50.3145V121.12H50.8945V128ZM60.4967 126.04C60.4967 126.52 60.6017 126.902 60.8117 127.185C61.025 127.465 61.345 127.605 61.7717 127.605C62.2017 127.605 62.5217 127.465 62.7317 127.185C62.9417 126.902 63.0467 126.52 63.0467 126.04V123.895H63.6167V126.14C63.6167 126.523 63.545 126.865 63.4017 127.165C63.2583 127.462 63.05 127.695 62.7767 127.865C62.5033 128.035 62.1683 128.12 61.7717 128.12C61.3783 128.12 61.045 128.035 60.7717 127.865C60.4983 127.695 60.29 127.462 60.1467 127.165C60.0033 126.865 59.9317 126.523 59.9317 126.14V123.895H60.4967V126.04ZM72.2288 123.895H73.0838V122.21H73.6488V123.895H74.7688V124.41H73.6488V126.845C73.6488 127.118 73.6988 127.313 73.7988 127.43C73.8988 127.547 74.0238 127.605 74.1738 127.605C74.3171 127.605 74.4255 127.58 74.4988 127.53C74.5721 127.48 74.6155 127.447 74.6288 127.43L74.8938 127.865C74.8738 127.882 74.8288 127.912 74.7588 127.955C74.6888 127.995 74.5971 128.032 74.4838 128.065C74.3705 128.102 74.2338 128.12 74.0738 128.12C73.7971 128.12 73.5621 128.032 73.3688 127.855C73.1788 127.675 73.0838 127.388 73.0838 126.995V124.41H72.2288V123.895ZM83.5578 128V123.895H84.1228V128H83.5578ZM83.8478 122.23C83.7278 122.23 83.6245 122.188 83.5378 122.105C83.4545 122.018 83.4128 121.915 83.4128 121.795C83.4128 121.672 83.4562 121.568 83.5428 121.485C83.6295 121.398 83.7312 121.355 83.8478 121.355C83.9278 121.355 84.0012 121.375 84.0678 121.415C84.1378 121.455 84.1928 121.508 84.2328 121.575C84.2762 121.638 84.2978 121.712 84.2978 121.795C84.2978 121.915 84.2528 122.018 84.1628 122.105C84.0762 122.188 83.9712 122.23 83.8478 122.23ZM95.1013 128.12C94.6913 128.12 94.3263 128.025 94.0063 127.835C93.6896 127.642 93.4396 127.382 93.2563 127.055C93.0763 126.728 92.9863 126.363 92.9863 125.96C92.9863 125.557 93.0763 125.19 93.2563 124.86C93.4396 124.527 93.6896 124.263 94.0063 124.07C94.3263 123.873 94.6913 123.775 95.1013 123.775C95.5113 123.775 95.8729 123.873 96.1863 124.07C96.5029 124.263 96.7513 124.527 96.9313 124.86C97.1113 125.19 97.2013 125.557 97.2013 125.96C97.2013 126.363 97.1113 126.728 96.9313 127.055C96.7513 127.382 96.5029 127.642 96.1863 127.835C95.8729 128.025 95.5113 128.12 95.1013 128.12ZM95.1013 127.605C95.4113 127.605 95.6813 127.533 95.9113 127.39C96.1446 127.247 96.3246 127.05 96.4513 126.8C96.5813 126.55 96.6463 126.27 96.6463 125.96C96.6463 125.647 96.5813 125.365 96.4513 125.115C96.3246 124.862 96.1446 124.662 95.9113 124.515C95.6813 124.365 95.4113 124.29 95.1013 124.29C94.7879 124.29 94.5146 124.365 94.2813 124.515C94.0479 124.662 93.8663 124.862 93.7363 125.115C93.6063 125.365 93.5413 125.647 93.5413 125.96C93.5413 126.27 93.6063 126.55 93.7363 126.8C93.8663 127.05 94.0479 127.247 94.2813 127.39C94.5146 127.533 94.7879 127.605 95.1013 127.605ZM107.983 123.775C108.243 123.775 108.496 123.832 108.743 123.945C108.989 124.055 109.193 124.232 109.353 124.475C109.513 124.715 109.593 125.027 109.593 125.41V128H109.013V125.545C109.013 125.088 108.906 124.76 108.693 124.56C108.479 124.357 108.206 124.255 107.873 124.255C107.653 124.255 107.439 124.318 107.233 124.445C107.029 124.572 106.861 124.745 106.728 124.965C106.598 125.185 106.533 125.432 106.533 125.705V128H105.963V123.895H106.533V124.685C106.556 124.568 106.634 124.44 106.768 124.3C106.904 124.157 107.078 124.033 107.288 123.93C107.501 123.827 107.733 123.775 107.983 123.775ZM119.95 123.775C120.14 123.775 120.318 123.797 120.485 123.84C120.655 123.88 120.803 123.932 120.93 123.995C121.056 124.055 121.151 124.11 121.215 124.16L120.94 124.555C120.87 124.488 120.748 124.418 120.575 124.345C120.401 124.268 120.206 124.23 119.99 124.23C119.723 124.23 119.495 124.285 119.305 124.395C119.118 124.505 119.025 124.665 119.025 124.875C119.025 125.078 119.12 125.24 119.31 125.36C119.5 125.48 119.75 125.578 120.06 125.655C120.296 125.715 120.511 125.79 120.705 125.88C120.901 125.97 121.058 126.093 121.175 126.25C121.291 126.403 121.35 126.608 121.35 126.865C121.35 127.085 121.305 127.275 121.215 127.435C121.125 127.592 121.001 127.72 120.845 127.82C120.691 127.92 120.516 127.995 120.32 128.045C120.123 128.095 119.916 128.12 119.7 128.12C119.476 128.12 119.27 128.095 119.08 128.045C118.89 127.995 118.726 127.935 118.59 127.865C118.456 127.795 118.355 127.73 118.285 127.67L118.57 127.225C118.656 127.315 118.798 127.408 118.995 127.505C119.195 127.598 119.428 127.645 119.695 127.645C120.005 127.645 120.26 127.573 120.46 127.43C120.663 127.287 120.765 127.098 120.765 126.865C120.765 126.695 120.716 126.558 120.62 126.455C120.523 126.352 120.396 126.27 120.24 126.21C120.083 126.147 119.916 126.093 119.74 126.05C119.57 126.007 119.406 125.955 119.25 125.895C119.096 125.832 118.96 125.753 118.84 125.66C118.72 125.567 118.625 125.455 118.555 125.325C118.488 125.192 118.455 125.037 118.455 124.86C118.455 124.64 118.523 124.45 118.66 124.29C118.796 124.127 118.978 124 119.205 123.91C119.435 123.82 119.683 123.775 119.95 123.775Z" fill="white"/>
<path d="M62.8933 74.1801V69.5001L83.5933 69.5361C84.6493 69.5361 85.4533 69.2961 86.0053 68.8161C86.5813 68.3121 86.8693 67.5081 86.8693 66.4041C86.8693 65.3001 86.5813 64.5081 86.0053 64.0281C85.4533 63.5241 84.6493 63.2721 83.5933 63.2721H70.7053C68.0413 63.2721 65.9653 62.6361 64.4773 61.3641C63.0133 60.0681 62.2813 58.1721 62.2813 55.6761C62.2813 53.1801 63.0133 51.2961 64.4773 50.0241C65.9653 48.7281 68.0413 48.0801 70.7053 48.0801H90.9373V52.7601L71.3173 52.7241C70.2853 52.7241 69.4813 52.9641 68.9053 53.4441C68.3293 53.9001 68.0413 54.6441 68.0413 55.6761C68.0413 56.7081 68.3293 57.4641 68.9053 57.9441C69.4813 58.4001 70.2853 58.6281 71.3173 58.6281H84.2053C86.8693 58.6281 88.9333 59.2881 90.3973 60.6081C91.8853 61.9041 92.6293 63.8361 92.6293 66.4041C92.6293 68.9481 91.8853 70.8801 90.3973 72.2001C88.9333 73.5201 86.8693 74.1801 84.2053 74.1801H62.8933Z" fill="white"/>
<path fill-rule="evenodd" clip-rule="evenodd" d="M55.4193 68.662C57.286 70.0486 60.1926 70.742 64.1393 70.742H68.8193C71.726 70.742 74.0193 70.3686 75.6993 69.622C77.3793 68.8486 78.5793 67.6886 79.2993 66.142C80.0193 64.5953 80.3793 62.6486 80.3793 60.302V41.942H73.9793V48.0265H80.357V52.6739H73.9793V60.302C73.9793 62.3286 73.4993 63.7153 72.5393 64.462C71.606 65.182 70.006 65.542 67.7393 65.542H65.2193C63.3526 65.542 61.8726 65.302 60.7793 64.822C59.686 64.3153 59.1393 63.3286 59.1393 61.862C59.1393 61.6486 59.1526 61.382 59.1793 61.062C59.206 60.742 59.246 60.4086 59.2993 60.062H52.8993C52.7393 60.782 52.6593 61.4886 52.6593 62.182C52.6593 65.0886 53.5793 67.2486 55.4193 68.662Z" fill="#FF9900"/>
<path fill-rule="evenodd" clip-rule="evenodd" d="M49 41C52.1052 37.484 55.8808 34.6136 60.112 32.5607C64.8911 30.242 70.1296 29.0254 75.4414 29.0004C80.7532 28.9754 86.0028 30.1428 90.8035 32.4164C95.1546 34.4772 99.0364 37.3992 102.217 41H95.7678C93.6816 39.2104 91.3602 37.7011 88.8611 36.5176C84.6741 34.5345 80.0955 33.5164 75.4627 33.5382C70.8299 33.56 66.261 34.6211 62.0929 36.6434C59.6929 37.8078 57.4611 39.2738 55.4488 41H49Z" fill="white"/>
<path fill-rule="evenodd" clip-rule="evenodd" d="M39.5375 44H34C38.3845 37.0825 44.419 31.358 51.5651 27.3436C58.8926 23.2272 67.1475 21.0443 75.5519 21.0007C83.9563 20.957 92.2334 23.054 99.6033 27.0939C106.941 31.1164 113.139 36.9331 117.618 44H112.081C108.2 38.6885 103.192 34.2834 97.4021 31.1094C90.714 27.4431 83.2026 25.5402 75.5757 25.5798C67.9487 25.6194 60.4575 27.6004 53.8079 31.3359C48.1873 34.4934 43.3245 38.8166 39.5375 44Z" fill="#FF9900"/>
</g>
<defs>
<filter id="filter0_d_23_106" x="-4" y="0" width="159" height="159" filterUnits="userSpaceOnUse" color-interpolation-filters="sRGB">
<feFlood flood-opacity="0" result="BackgroundImageFix"/>
<feColorMatrix in="SourceAlpha" type="matrix" values="0 0 0 0 0 0 0 0 0 0 0 0 0 0 0 0 0 0 127 0" result="hardAlpha"/>
<feOffset dy="4"/>
<feGaussianBlur stdDeviation="2"/>
<feComposite in2="hardAlpha" operator="out"/>
<feColorMatrix type="matrix" values="0 0 0 0 0 0 0 0 0 0 0 0 0 0 0 0 0 0 0.25 0"/>
<feBlend mode="normal" in2="BackgroundImageFix" result="effect1_dropShadow_23_106"/>
<feBlend mode="normal" in="SourceGraphic" in2="effect1_dropShadow_23_106" result="shape"/>
</filter>
</defs>
</svg>
