<svg width="151" height="151" viewBox="0 0 151 151" fill="none" xmlns="http://www.w3.org/2000/svg">
<g filter="url(#filter0_d_23_221)">
<path d="M62.8933 99.1801V94.5001L83.5933 94.5361C84.6493 94.5361 85.4533 94.2961 86.0053 93.8161C86.5813 93.3121 86.8693 92.5081 86.8693 91.4041C86.8693 90.3001 86.5813 89.5081 86.0053 89.0281C85.4533 88.5241 84.6493 88.2721 83.5933 88.2721H70.7053C68.0413 88.2721 65.9653 87.6361 64.4773 86.3641C63.0133 85.0681 62.2813 83.1721 62.2813 80.6761C62.2813 78.1801 63.0133 76.2961 64.4773 75.0241C65.9653 73.7281 68.0413 73.0801 70.7053 73.0801H90.9373V77.7601L71.3173 77.7241C70.2853 77.7241 69.4813 77.9641 68.9053 78.4441C68.3293 78.9001 68.0413 79.6441 68.0413 80.6761C68.0413 81.7081 68.3293 82.4641 68.9053 82.9441C69.4813 83.4001 70.2853 83.6281 71.3173 83.6281H84.2053C86.8693 83.6281 88.9333 84.2881 90.3973 85.6081C91.8853 86.9041 92.6293 88.8361 92.6293 91.4041C92.6293 93.9481 91.8853 95.8801 90.3973 97.2001C88.9333 98.5201 86.8693 99.1801 84.2053 99.1801H62.8933Z" fill="white"/>
<path fill-rule="evenodd" clip-rule="evenodd" d="M55.4193 93.662C57.286 95.0486 60.1926 95.742 64.1393 95.742H68.8193C71.726 95.742 74.0193 95.3686 75.6993 94.622C77.3793 93.8486 78.5793 92.6886 79.2993 91.142C80.0193 89.5953 80.3793 87.6486 80.3793 85.302V66.942H73.9793V73.0265H80.357V77.6739H73.9793V85.302C73.9793 87.3286 73.4993 88.7153 72.5393 89.462C71.606 90.182 70.006 90.542 67.7393 90.542H65.2193C63.3526 90.542 61.8726 90.302 60.7793 89.822C59.686 89.3153 59.1393 88.3286 59.1393 86.862C59.1393 86.6486 59.1526 86.382 59.1793 86.062C59.206 85.742 59.246 85.4086 59.2993 85.062H52.8993C52.7393 85.782 52.6593 86.4886 52.6593 87.182C52.6593 90.0886 53.5793 92.2486 55.4193 93.662Z" fill="#FF9900"/>
<path fill-rule="evenodd" clip-rule="evenodd" d="M49 66C52.1052 62.484 55.8808 59.6136 60.112 57.5607C64.8911 55.242 70.1296 54.0254 75.4414 54.0004C80.7532 53.9754 86.0029 55.1428 90.8035 57.4164C95.1546 59.4772 99.0364 62.3992 102.217 66H95.7678C93.6816 64.2104 91.3602 62.7011 88.8612 61.5176C84.6742 59.5345 80.0955 58.5164 75.4627 58.5382C70.8299 58.56 66.261 59.6211 62.0929 61.6434C59.6929 62.8078 57.4611 64.2738 55.4488 66H49Z" fill="white"/>
<path fill-rule="evenodd" clip-rule="evenodd" d="M39.5375 69H34C38.3845 62.0825 44.419 56.358 51.5651 52.3436C58.8926 48.2272 67.1475 46.0443 75.5519 46.0007C83.9563 45.957 92.2334 48.054 99.6033 52.0939C106.941 56.1164 113.139 61.9331 117.618 69H112.081C108.2 63.6885 103.192 59.2834 97.4021 56.1094C90.714 52.4431 83.2026 50.5402 75.5757 50.5798C67.9487 50.6194 60.4575 52.6004 53.8079 56.3359C48.1873 59.4934 43.3245 63.8166 39.5375 69Z" fill="#FF9900"/>
</g>
<defs>
<filter id="filter0_d_23_221" x="-4" y="0" width="159" height="159" filterUnits="userSpaceOnUse" color-interpolation-filters="sRGB">
<feFlood flood-opacity="0" result="BackgroundImageFix"/>
<feColorMatrix in="SourceAlpha" type="matrix" values="0 0 0 0 0 0 0 0 0 0 0 0 0 0 0 0 0 0 127 0" result="hardAlpha"/>
<feOffset dy="4"/>
<feGaussianBlur stdDeviation="2"/>
<feComposite in2="hardAlpha" operator="out"/>
<feColorMatrix type="matrix" values="0 0 0 0 0 0 0 0 0 0 0 0 0 0 0 0 0 0 0.25 0"/>
<feBlend mode="normal" in2="BackgroundImageFix" result="effect1_dropShadow_23_221"/>
<feBlend mode="normal" in="SourceGraphic" in2="effect1_dropShadow_23_221" result="shape"/>
</filter>
</defs>
</svg>
